<?xml version="1.0" encoding="UTF-8"?>
<svg viewBox="0 0 534 344.71875" xmlns="http://www.w3.org/2000/svg">
 <defs>
  <pattern id="a" width="9.66095" height="10.17412" patternTransform="translate(29.225 374.72)" patternUnits="userSpaceOnUse">
   <g transform="translate(.03133 -374.72)">
    <path d="m-0.02681 374.73h9.6564v10.165h-9.6564z" fill="none"/>
    <path d="m1.1428 375.23h6.3393" fill="none" opacity=".5" stroke="#000" stroke-linecap="round"/>
    <path d="m1.1428 384.39h6.3393" fill="none" opacity=".5" stroke="#fff" stroke-linecap="round"/>
    <path d="m8.1518 377.29v6.3393" fill="#333" opacity=".5" stroke="#333" stroke-linecap="round"/>
    <path d="m0.47319 377.29v6.3393" fill="#333" opacity=".5" stroke="#333" stroke-linecap="round"/>
    <path d="m-0.02681 374.73h9.6564v10.165h-9.6564z" fill="none"/>
   </g>
  </pattern>
 </defs>
 <g transform="translate(-108.01 -360)">
  <path d="m310.2 475.34h126.07v85.357h-126.07z" fill="#b3b3b3" stroke="#f00" stroke-linecap="round" stroke-width="2"/>
  <path d="m263.41 434.35c-46.206 0-83.656 37.481-83.656 83.687s37.45 83.656 83.656 83.656 83.656-37.45 83.656-83.656-37.45-83.687-83.656-83.687zm0 53.687c16.569 0 30 13.432 30 30s-13.431 30-30 30-30-13.431-30-30 13.431-30 30-30z" fill="#1a1a1a" stroke="#000" stroke-linecap="round" stroke-width="1.8148"/>
  <path d="m483.06 405.07c-62.38 0-112.97 50.588-112.97 112.97s50.588 112.94 112.97 112.94 112.94-50.557 112.94-112.94-50.557-112.97-112.94-112.97zm-0.3125 82.938c12.788-0.1295 24.716 7.9991 28.844 20.812 5.0807 15.77-3.5735 32.669-19.344 37.75s-32.669-3.5735-37.75-19.344 3.5734-32.669 19.344-37.75c2.9569-0.9527 5.955-1.4389 8.9062-1.4688z" fill="#1a1a1a" stroke="#000" stroke-linecap="round" stroke-width="1.8148"/>
  <path d="m483.06 462.94c-30.427 0-55.094 24.667-55.094 55.094s24.667 55.094 55.094 55.094 55.094-24.667 55.094-55.094-24.667-55.094-55.094-55.094zm-0.3125 25.062c12.788-0.1295 24.716 7.9991 28.844 20.812 5.0807 15.77-3.5735 32.669-19.344 37.75s-32.669-3.5735-37.75-19.344 3.5734-32.669 19.344-37.75c2.9569-0.9527 5.955-1.4389 8.9062-1.4688z" fill="#b3b3b3" stroke="#999" stroke-linecap="round" stroke-width="1.8148"/>
  <path d="m263.41 462.94c-30.427 0-55.094 24.667-55.094 55.094s24.667 55.094 55.094 55.094 55.094-24.667 55.094-55.094-24.667-55.094-55.094-55.094zm0 25.094c16.569 0 30 13.432 30 30s-13.431 30-30 30-30-13.431-30-30 13.431-30 30-30z" fill="#b3b3b3" stroke="#aaa" stroke-linecap="round" stroke-width="1.8148"/>
  <g transform="matrix(.97774 .20981 -.20981 .97774 -1348.5 -277.75)" fill="#999" stroke="#808080" stroke-linecap="round" stroke-width="2">
   <path d="m1739.6 407.54h8.2143v8.2143h-8.2143z"/>
   <path transform="rotate(60)" d="m1249.1-1321.9h8.2143v8.2143h-8.2143z"/>
   <path transform="matrix(-.5,.86603,-.86603,-.5,0,0)" d="m-493.98-1761.8h8.2143v8.2143h-8.2143z"/>
   <path transform="scale(-1)" d="m-1746.4-472.18h8.2143v8.2143h-8.2143z"/>
   <path transform="matrix(-.5,-.86603,.86603,-.5,0,0)" d="m-1255.8 1257.3h8.2143v8.2143h-8.2143z"/>
   <path transform="matrix(.5,-.86603,.86603,.5,0,0)" d="m487.19 1697.1h8.2143v8.2143h-8.2143z"/>
  </g>
  <g transform="matrix(.99497 -.10013 .10013 .99497 -1295.3 254.89)" fill="#999" stroke="#808080" stroke-linecap="round" stroke-width="2">
   <path d="m1739.6 407.54h8.2143v8.2143h-8.2143z"/>
   <path transform="rotate(60)" d="m1249.1-1321.9h8.2143v8.2143h-8.2143z"/>
   <path transform="matrix(-.5,.86603,-.86603,-.5,0,0)" d="m-493.98-1761.8h8.2143v8.2143h-8.2143z"/>
   <path transform="scale(-1)" d="m-1746.4-472.18h8.2143v8.2143h-8.2143z"/>
   <path transform="matrix(-.5,-.86603,.86603,-.5,0,0)" d="m-1255.8 1257.3h8.2143v8.2143h-8.2143z"/>
   <path transform="matrix(.5,-.86603,.86603,.5,0,0)" d="m487.19 1697.1h8.2143v8.2143h-8.2143z"/>
  </g>
  <path d="m124.31 362c-7.9143 0-14.312 6.3672-14.312 14.281v291.22l5.2812 4.4375v16.5c0 7.9143 6.3981 14.281 14.313 14.281h490.84c7.9142 0 14.281-6.367 14.281-14.281v-16.5l5.2812-4.4375v-291.22c0-7.914-6.3673-14.281-14.281-14.281h-501.41zm185.88 113.34h126.09v85.344h-126.09v-85.344zm172.56 12.656c12.788-0.1295 24.716 7.9991 28.844 20.812 5.0806 15.77-3.5735 32.669-19.344 37.75s-32.669-3.5736-37.75-19.344 3.5733-32.669 19.344-37.75c2.9568-0.9528 5.955-1.4389 8.9062-1.4688zm-219.34 0.031c16.569 0 30 13.432 30 30s-13.431 30-30 30-30-13.431-30-30 13.432-30 30-30zm34.813 177.47h5.7187c4.0561 0 7.3125 3.2564 7.3125 7.3125v5.7187c0 4.0562-3.2564 7.3438-7.3125 7.3438h-5.7187c-4.0562 0-7.3126-3.2876-7.3126-7.3438v-5.7187c0-4.0561 3.2564-7.3125 7.3126-7.3125zm147.88 0h5.7187c4.056 0 7.3125 3.2564 7.3125 7.3125v5.7187c0 4.0562-3.2565 7.3438-7.3125 7.3438h-5.7187c-4.0562 0-7.3438-3.2876-7.3438-7.3438v-5.7187c0-4.0561 3.2876-7.3125 7.3438-7.3125zm-197.5 5.7188c6.903 0 12.5 5.5961 12.5 12.5s-5.597 12.5-12.5 12.5-12.5-5.5967-12.5-12.5 5.596-12.5 12.5-12.5zm252.84 0c6.9035 0 12.5 5.5961 12.5 12.5s-5.5965 12.5-12.5 12.5-12.5-5.5967-12.5-12.5 5.5964-12.5 12.5-12.5z" fill="#1a1a1a" stroke="#000" stroke-linecap="round" stroke-width="4"/>
  <path d="m124.31 362c-7.9143 0-14.312 6.3672-14.312 14.281v291.22l5.2812 4.4375v16.5c0 7.9143 6.3981 14.281 14.313 14.281h490.84c7.9142 0 14.281-6.367 14.281-14.281v-16.5l5.2812-4.4375v-291.22c0-7.914-6.3673-14.281-14.281-14.281h-501.41zm185.88 113.34h126.09v85.344h-126.09v-85.344zm172.56 12.656c12.788-0.1295 24.716 7.9991 28.844 20.812 5.0806 15.77-3.5735 32.669-19.344 37.75s-32.669-3.5736-37.75-19.344 3.5733-32.669 19.344-37.75c2.9568-0.9528 5.955-1.4389 8.9062-1.4688zm-219.34 0.031c16.569 0 30 13.432 30 30s-13.431 30-30 30-30-13.431-30-30 13.432-30 30-30zm34.813 177.47h5.7187c4.0561 0 7.3125 3.2564 7.3125 7.3125v5.7187c0 4.0562-3.2564 7.3438-7.3125 7.3438h-5.7187c-4.0562 0-7.3126-3.2876-7.3126-7.3438v-5.7187c0-4.0561 3.2564-7.3125 7.3126-7.3125zm147.88 0h5.7187c4.056 0 7.3125 3.2564 7.3125 7.3125v5.7187c0 4.0562-3.2565 7.3438-7.3125 7.3438h-5.7187c-4.0562 0-7.3438-3.2876-7.3438-7.3438v-5.7187c0-4.0561 3.2876-7.3125 7.3438-7.3125zm-197.5 5.7188c6.903 0 12.5 5.5961 12.5 12.5s-5.597 12.5-12.5 12.5-12.5-5.5967-12.5-12.5 5.596-12.5 12.5-12.5zm252.84 0c6.9035 0 12.5 5.5961 12.5 12.5s-5.5965 12.5-12.5 12.5-12.5-5.5967-12.5-12.5 5.5964-12.5 12.5-12.5z" fill="url(#a)" stroke="#000" stroke-linecap="round" stroke-width="4"/>
  <path d="m138.41 390.53c-0.8903 0-1.5937 0.7034-1.5937 1.5938v216.78c0 0.8904 0.7034 1.625 1.5937 1.625h472.5c0.8904 0 1.625-0.7346 1.625-1.625v-216.78c0-0.8904-0.7346-1.5938-1.625-1.5938h-472.5zm171.78 84.813h126.06v85.375h-126.06v-85.375zm-46.781 12.687c16.569 0 30 13.432 30 30s-13.431 30-30 30-30-13.431-30-30 13.432-30 30-30zm219.34 0c12.788-0.1295 24.716 7.9991 28.844 20.813 5.0806 15.77-3.5735 32.669-19.344 37.75s-32.669-3.6049-37.75-19.375 3.5733-32.669 19.344-37.75c2.9568-0.9528 5.955-1.4077 8.9062-1.4376z" fill="none" stroke="#000" stroke-linecap="round" stroke-width="2"/>
  <path d="m124.31 362c-7.9143 0-14.312 6.3672-14.312 14.281v291.22l5.2812 4.4375v16.5c0 7.9143 6.3981 14.281 14.313 14.281h490.84c7.9142 0 14.281-6.367 14.281-14.281v-16.5l5.2812-4.4375v-291.22c0-7.914-6.3673-14.281-14.281-14.281h-501.41zm185.88 113.34h126.09v85.344h-126.09v-85.344zm172.56 12.656c12.788-0.1295 24.716 7.9991 28.844 20.812 5.0806 15.77-3.5735 32.669-19.344 37.75s-32.669-3.5736-37.75-19.344 3.5733-32.669 19.344-37.75c2.9568-0.9528 5.955-1.4389 8.9062-1.4688zm-219.34 0.031c16.569 0 30 13.432 30 30s-13.431 30-30 30-30-13.431-30-30 13.432-30 30-30zm34.813 177.47h5.7187c4.0561 0 7.3125 3.2564 7.3125 7.3125v5.7187c0 4.0562-3.2564 7.3438-7.3125 7.3438h-5.7187c-4.0562 0-7.3126-3.2876-7.3126-7.3438v-5.7187c0-4.0561 3.2564-7.3125 7.3126-7.3125zm147.88 0h5.7187c4.056 0 7.3125 3.2564 7.3125 7.3125v5.7187c0 4.0562-3.2565 7.3438-7.3125 7.3438h-5.7187c-4.0562 0-7.3438-3.2876-7.3438-7.3438v-5.7187c0-4.0561 3.2876-7.3125 7.3438-7.3125zm-197.5 5.7188c6.903 0 12.5 5.5961 12.5 12.5s-5.597 12.5-12.5 12.5-12.5-5.5967-12.5-12.5 5.596-12.5 12.5-12.5zm252.84 0c6.9035 0 12.5 5.5961 12.5 12.5s-5.5965 12.5-12.5 12.5-12.5-5.5967-12.5-12.5 5.5964-12.5 12.5-12.5z" fill="none" stroke="#000" stroke-linecap="round" stroke-width="4"/>
  <g transform="translate(102.86 48.929)">
   <path d="m469.3 569.63h37.857a1.6071 1.6071 0 0 1 1.6071 1.6071v37.857a1.6071 1.6071 0 0 1 -1.6071 1.6071h-37.857a1.6071 1.6071 0 0 1 -1.6071 -1.6071v-37.857a1.6071 1.6071 0 0 1 1.6071 -1.6071" stroke="#666" stroke-linecap="round" stroke-width="2"/>
   <path transform="matrix(0 -1 1 0 -473.99 2755.2)" d="m2165 975.61-15.465-26.786h30.929z" fill="#1a1a1a"/>
   <path d="m111.8 569.67s-6.8259-0.24508-8.5937 8.5938c0 0-9.3385 70.218-19.188 76.531h4.0312s7.3336-8.0979 8.3438-13.906c1.7677-10.102 13.375-64.125 13.375-64.125h324.75s11.607 54.024 13.375 64.125c1.0102 5.8084 8.3438 13.906 8.3438 13.906h4.0312c-9.849-6.3136-19.188-76.531-19.188-76.531-1.7678-8.8388-8.5937-8.5938-8.5937-8.5938h-320.69z"/>
   <path d="m122.17 418.73c-2.5722 0-4.6562 2.0842-4.6562 4.6563v91.406c0 2.5721 2.084 4.6562 4.6562 4.6562h296.41c2.5722 0 4.6563-2.0841 4.6563-4.6562v-91.406c0-2.5721-2.0841-4.6563-4.6563-4.6563h-296.41zm85.156 7.6876h126.09v85.344h-126.09v-85.344zm172.56 12.656c12.788-0.1295 24.716 7.9991 28.844 20.812 5.0806 15.77-3.5735 32.669-19.344 37.75s-32.669-3.5736-37.75-19.344 3.5733-32.669 19.344-37.75c2.9568-0.9528 5.955-1.4389 8.9062-1.4688zm-219.34 0.031c16.569 0 30 13.432 30 30s-13.431 30-30 30-30-13.431-30-30 13.432-30 30-30z"/>
   <path d="m122.71 423.92v90.344h295.34v-90.344h-295.34zm84.625 2.5h126.09v85.344h-126.09v-85.344zm-81.406 8.0312h69.281v69.281h-69.281v-69.281zm219.62 0h69.281v69.281h-69.281v-69.281z" fill="#1a1a1a" stroke="#333" stroke-linecap="round" stroke-width="2"/>
   <g transform="translate(-1584.3 31.731)" fill="#808080" stroke="#fff">
    <path d="m1802.1 429.86v15"/>
    <path d="m1815.3 429.86v15"/>
    <path d="m1828.4 429.86v15"/>
    <path d="m1841.5 429.86v15"/>
    <path d="m1854.6 429.86v15"/>
    <path d="m1867.8 429.86v15"/>
    <path d="m1880.9 429.86v15"/>
    <path d="m1894 429.86v15"/>
    <path d="m1907.1 429.86v15"/>
   </g>
   <path d="m35.732 569.63h37.857a1.6071 1.6071 0 0 1 1.6071 1.6071v37.857a1.6071 1.6071 0 0 1 -1.6071 1.6071h-37.857a1.6071 1.6071 0 0 1 -1.6071 -1.6071v-37.857a1.6071 1.6071 0 0 1 1.6071 -1.6071" stroke="#666" stroke-linecap="round" stroke-width="2"/>
   <g fill="#1a1a1a" font-family="FreeSans" font-size="40" font-weight="bold" letter-spacing="0" word-spacing="0">
    <path d="m60.121 598.86h-10.92l-1.96 5.88h-6.12l10.36-29.16h6.64l10.08 29.16h-6.16l-1.92-5.88m-1.64-5-3.8-11.4-3.8 11.4h7.6"/>
   </g>
   <g transform="matrix(.99999 -.00538 .00538 .99999 -1277.2 639.22)">
    <path d="m1326.5-287.13h453.57a4.6429 4.6429 0 0 1 4.6429 4.6429v43.571a4.6429 4.6429 0 0 1 -4.6429 4.6429h-453.57a4.6429 4.6429 0 0 1 -4.6429 -4.6429v-43.571a4.6429 4.6429 0 0 1 4.6429 -4.6429" fill="#fff" stroke="#ccc" stroke-linecap="round" stroke-width="2"/>
    <g transform="translate(-301.03 -991.56)">
     <path d="m1638.9 715.14h22.143a4.6429 4.6429 0 0 1 4.6429 4.6429v22.143a4.6429 4.6429 0 0 1 -4.6429 4.6429h-22.143a4.6429 4.6429 0 0 1 -4.6429 -4.6429v-22.143a4.6429 4.6429 0 0 1 4.6429 -4.6429"/>
     <g fill="#fff" font-family="FreeSans" font-size="32.614" font-weight="bold" letter-spacing="0" word-spacing="0">
      <path d="m1654.5 737.95h-8.9037l-1.5981 4.7943h-4.9901l8.4472-23.776h5.414l8.2188 23.776h-5.0226l-1.5655-4.7943m-1.3372-4.0768-3.0984-9.2951-3.0983 9.2951h6.1967"/>
     </g>
    </g>
    <path d="m1326.5-287.12c-2.5721 0-4.6562 2.0528-4.6562 4.625v3.4687h462.88v-3.4687c0-2.5722-2.0842-4.625-4.6563-4.625h-453.56zm-4.6562 43.812v4.4063c0 2.5721 2.0841 4.625 4.6562 4.625h453.56c2.5721 0 4.6563-2.0529 4.6563-4.625v-4.4063h-462.88z" fill="#ccc" stroke="#ccc" stroke-linecap="round" stroke-width="2"/>
    <g transform="translate(-301.03 -986.38)">
     <g transform="scale(.9801,1.0203)" font-family="FreeSans" font-size="8.3894" font-weight="bold" letter-spacing="0" word-spacing="0">
      <path d="m2086.8 702.39v2.2651h-1.2584v-2.2651l-2.0303-3.8507h1.4011l1.25 2.7014 1.1661-2.7014h1.4094l-1.9379 3.8507"/>
      <path d="m2090.8 702.02v1.5856h3.3138v1.0487h-4.5722v-6.1159h4.4212v1.0487h-3.1628v1.3842h2.9279v1.0487h-2.9279"/>
      <path d="m2099.1755,700.40351h-1.1745c-.045-.63759-.4726-.95639-1.2836-.95639-.3243,0-.5816.0699-.7718.20973-.1901.13424-.2852.316-.2852.54531 0,.22372.081.39151.2433.50336s.467.20415.9144.29363l.9564.18457c.5649.11186.976.30202 1.2332.57048 .2573.26287.386.63479.386,1.11578 0,.62082-.221,1.1074-.6628,1.45976s-1.0571.52014-1.8457.52014c-.783,0-1.3926-.17338-1.8289-.52014-.4306-.34676-.6655-.84733-.7047-1.5017h1.2249c.022.32998.151.58166.3859.75504s.5649.26007.9899.26007c.3804,0 .6796-.0727.8977-.21812s.3356-.34676.3356-.60404c0-.24608-.087-.43624-.2601-.57048s-.4698-.24049-.8893-.31879l-.8557-.16779c-.6208-.11745-1.0626-.30201-1.3255-.5537s-.3943-.61522-.3943-1.09062c0-.59844.2013-1.05985.604-1.38425 .4083-.32997.9788-.49496 1.7115-.49497 .2125,1e-005 .4166.014.6124.042s.4139.0867.6376.17617c.2237.0839.4167.19576.5789.33558 .1621.13423.2964.32439.4026.57048 .1119.2405.1678.52014.1678.83894"/>
     </g>
     <path d="m2030.5 711.57h8.5714v8.5714h-8.5714z" fill="none" stroke="#000" stroke-linecap="round"/>
     <path d="m2061.5 711.57h8.5714v8.5714h-8.5714z" fill="none" stroke="#000" stroke-linecap="round"/>
     <g transform="scale(.9801,1.0203)" font-family="FreeSans" font-size="8.3894" font-weight="bold" letter-spacing="0" word-spacing="0">
      <path d="m2054.4 704.7-2.4581-4.2282v4.2282h-1.2584v-6.1159h1.292l2.4245 4.1611v-4.1611h1.2584v6.1159h-1.2584"/>
      <path d="m2057.9 703.48v1.2248h-1.2584v-1.2248h1.2584"/>
      <path d="m2062.6013,703.65439c0-.16779 0-.29922.01-.3943s.01-.17897.01-.25168c-.0001-.25727-.062-.44184-.1846-.5537-.1231-.11745-.3216-.17617-.5957-.17618h-1.4429v2.42453h-1.2584v-6.11586h3.2802c.3132,1e-005 .5817.0531.8054.1594 .2293.10627.3999.2461.5117.41947 .1175.17339.2014.34956.2517.52853 .05.17339.076.35516.076.54531 0,.73827-.3439,1.24163-1.0319,1.51009 .151.0615.2629.11186.3356.15101 .073.0336.1454.0923.2181.17618 .078.0839.1287.1594.151.22651 .028.0671.053.19016.075.36913 .028.17898.045.35516.05.52853s.011.43066.017.77183c0,.2349.089.40269.2684.50336v.22651h-1.3507c-.078-.14541-.1314-.28523-.1594-.41947-.022-.13422-.034-.34396-.034-.6292m.2013-3.2383c0-.3132-.073-.52014-.2181-.62081-.1454-.10626-.3691-.1594-.6712-.1594h-1.5184v1.59398h1.5184c.2965,0 .5174-.0531.6628-.1594s.2265-.32438.2265-.65437"/>
      <path d="m2066.3 703.48v1.2248h-1.2584v-1.2248h1.2584"/>
     </g>
     <g transform="scale(.9801,1.0203)" font-family="FreeSans" font-size="8.3894" font-weight="bold" letter-spacing="0" word-spacing="0">
      <path d="m2117.4 704.66-2.4581-4.2282v4.2282h-1.2584v-6.1159h1.2919l2.4246 4.1611v-4.1611h1.2584v6.1159h-1.2584"/>
      <path d="m2120.3169,703.95221c-.5369-.59844-.8054-1.36746-.8054-2.30708s.2685-1.70863.8054-2.30708 1.2528-.89765 2.1309-.89766 1.5968.29923 2.1393.89766c.5425.59286.8137,1.37587.8137,2.34903 0,.90606-.2684,1.6611-.8053,2.26513-.5314.59845-1.2445.89767-2.1393.89767s-1.6024-.29922-2.1393-.89767m2.1393-4.43798c-.509,1e-005-.9173.19576-1.2249.58726s-.4614.90046-.4614,1.54364 .1538,1.16054.4614,1.55204 .7159.57887 1.2249.57887c.5033,0 .9088-.19296 1.2164-.57887s.4698-.89207.4698-1.51848c0-.65996-.1538-1.18569-.4614-1.5772-.302-.3915-.7103-.58725-1.2248-.58726"/>
     </g>
    </g>
   </g>
   <g transform="matrix(.99999 .00369 -.00369 .99999 -1283.4 626.56)">
    <path d="m1326.5-225.69c-2.5721 0-4.6562 2.0529-4.6562 4.625v141.44c0 2.5721 2.0841 4.625 4.6562 4.625h453.56c2.5721 0 4.6563-2.0529 4.6563-4.625v-141.44c0-2.5721-2.0842-4.625-4.6563-4.625h-453.56zm77.156 12.125h296.41c2.5722 0 4.6563 2.0841 4.6563 4.6563v91.406c0 2.5721-2.0841 4.6562-4.6563 4.6562h-296.41c-2.5722 0-4.6562-2.0841-4.6562-4.6562v-91.406c0-2.5721 2.084-4.6563 4.6562-4.6563z" fill="#fff" stroke="#ff2a2a" stroke-linecap="round" stroke-width="2"/>
    <g transform="matrix(.06431 0 0 .06431 1235.2 -222.88)">
     <path transform="matrix(15.551 -.05741 .05741 15.551 811.22 -1514)" d="m94.78125,148.46875-.03125,7.40625-.03125,7.4375h1.375 1.40625l.03125-7.40625v-7.4375h-1.375-1.375zm5.15625,0-.03125,7.4375-.03125,7.4375h1.34375 1.34375l.0312-7.4375 .0312-7.40625-1.34375-.0312h-1.34375zm-58.46875,2.6875c-.11608.0166-.1363.0744-.21875.15625l-.1875.15625v5.8125l-.03125,5.84375h1.21875 1.21875l.03125-4.96875c.01283-3.47456.04344-5.04486.09375-5.1875 .12522-.35499.33692-.42072 1.5-.4375 .85072-.0123 1.07826-.00067 1.34375.0937 .58178.20691.55226-.16064.53125,5.53125l-.03125,4.96875 1.25.0312h1.28125v-4.96875c.02073-5.61529-.0052-5.26943.53125-5.53125 .2608-.12729.40147-.14016 1.1875-.15625 .96745-.0198 1.38395.0386 1.59375.25 .12155.12245.11225.23775.09375,5.25v5.15625h1.28125 1.28125l.03125-5.375c.01384-3.74972-.01303-5.45665-.0625-5.65625-.16083-.64884-.89291-.92739-2.46875-.9375-1.31231-.008-2.46162.24085-2.96875.625l-.28125.21885-.1875-.15625c-.48673-.45831-1.466-.68281-2.9375-.6875-.89382-.003-1.80165.0936-2.5.3125l-.5.1875-.09375-.15625c-.16044-.23086-.51763-.30696-1.3125-.34375-.37008-.0171-.57142-.0479-.6875-.0312zm17.3125.0937-.25.15625c-.15057.0797-.37091.2597-.46875.40625l-.1875.25v1.375l-.03125,1.375h1.28125 1.28125v-.8125c.0017-.45748.05827-.9077.09375-1 .12912-.33587.33621-.37393 2.46875-.34375 2.11542.0299 2.15427.0376 2.28125.40625 .03613.10488.06533.79481.0625,1.5625-.004,1.09515-.01673,1.41491-.09375,1.5625-.20997.40238-.06959.38928-3.9375.375h-3.5v2.65625c.0094,2.61387.01096,2.64458.15625,2.96875 .18071.40319.53353.77984.875.90625 .2149.0796.98294.0762 4.71875.0937l4.4375.0312 .03125-5.25c.01286-3.48359-.01744-5.34855-.0625-5.5625-.08699-.41304-.37202-.78191-.71875-.96875l-.25-.15625h-4.09375l-4.09375-.0312zm10.71875.0313c-7.3e-005,.0198 1.01683,1.47948 2.25,3.21875s2.22939,3.19071 2.21875,3.21875-.99735,1.2184-2.1875,2.65625-2.20355,2.65449-2.25,2.71875c-.0803.11107-.03597.12244.65625.125h.71875l1.8125-2.15625c.99414-1.18346 1.84984-2.20912 1.90625-2.28125 .09858-.12606.15607-.0175 1.71875,2.1875l1.625,2.28125h1.625 1.625l-2.34375-3.34375c-2.01793-2.90457-2.32162-3.37806-2.25-3.46875 .04556-.0577 1.00423-1.19052 2.125-2.53125s2.06668-2.48782 2.09375-2.53125c.03795-.0609-.13746-.0602-.75-.0625l-.78125-.0312-1.09375,1.34375c-.6024.72874-1.39355,1.66454-1.75,2.09375l-.65625.7812-1.46875-2.125-1.46875-2.09375h-1.6875c-.93261-.003-1.68743-.0198-1.6875,0zm14,.0625-.34375.15625c-.41319.18487-.74658.5575-.84375.9375s-.15712,9.14446-.0625,9.59375c.10628.50464.38715.90849.78125,1.09375l.34375.15625h4.03125 4.03125l.34375-.15625c.3941-.18526.67497-.58911.78125-1.09375 .0946-.44929.06675-9.21082-.03125-9.59375s-.4618-.75263-.875-.9375l-.3125-.15625-3.9375.0312v-.0312h-3.90625zm2,1.375 1.90625.0312h1.90625l.15625.15625 .15625.15625v1.5l.03125,1.53125 .0625,1.84375v1.75 1.71875l-.15625.125c-.31991.25356-.63669.30689-2.15625.3125-1.51956-.006-1.83634-.0589-2.15625-.3125l-.15625-.125v-1.71875-1.75l.0625-1.84375 .03125-1.53125v-1.5l.15625-.15625 .15625-.1875zm-24.4375,5.28125c.27403-.0168.796-.004 1.78125,0 1.90048.007 2.00695.006 2.125.125 .18372.18508.21507.40867.1875,1.90625-.02266,1.23057-.04494,1.37806-.15625,1.5-.12006.13153-.17139.13233-2.15625.125-1.7364-.006-2.06578-.0391-2.1875-.125-.14075-.0994-.13081-.11446-.125-1.6875 .0058-1.58177.0079-1.58044.15625-1.71875 .07337-.0684.10097-.10823.375-.125z"/>
     <path d="m5260.8 1265.3-0.054 101.62-0.052 102.05 18.865-0.07 19.294-0.071 0.054-101.62-0.3767-102.04-18.865 0.07-18.865 0.07zm70.744-0.2611-0.052 102.05-0.052 102.05 18.436-0.068 18.436-0.068 0.052-102.05 0.054-101.62-18.438-0.3607-18.436 0.068zm-802.06 39.834c-1.5918 0.2336-1.8663 1.0278-2.9934 2.1549l-2.5646 2.1532 0.2944 79.748-0.1327 80.179 16.721-0.062 16.721-0.062 0.1771-68.174c0-47.672 0.3404-69.218 1.0235-71.178 1.7001-4.8768 4.6012-5.7894 20.558-6.0785 11.672-0.2114 14.794-0.063 18.441 1.2182 7.9926 2.8094 7.5689-2.232 7.5689 75.863l-0.1771 68.174 17.152 0.3654 17.579-0.065-0.2516-68.172c0-77.044-0.3385-72.297 7.0087-75.916 3.5718-1.7597 5.5011-1.9434 16.285-2.204 13.272-0.3206 18.99 0.4602 21.879 3.3494 1.6739 1.6739 1.5522 3.2562 1.5522 72.026l0.2612 70.744 17.579-0.065 17.579-0.065 0.1565-73.747c0-51.447-0.4551-74.865-1.144-77.601-2.2396-8.894-12.298-12.679-33.919-12.738-18.006-0.049-33.762 3.4291-40.7 8.7255l-3.8477 3.0155-2.5805-2.1343c-6.7012-6.2634-20.148-9.294-40.338-9.2838-12.264 0.01-24.714 1.375-34.285 4.4142l-6.8506 2.5979-1.2941-2.1391c-2.213-3.1593-7.1176-4.1853-18.025-4.6498-5.0784-0.2163-7.8423-0.6276-9.4341-0.394zm237.53 0.4094-3.422 2.1564c-2.0619 1.1014-5.0758 3.5819-6.4108 5.5976l-2.5599 3.4395 0.07 18.865-0.359 18.867 17.579-0.065 17.579-0.064-0.041-11.148c0-6.2767 0.7535-12.457 1.2356-13.725 1.7546-4.6148 4.5939-5.1474 33.854-4.8414 29.025 0.3036 29.559 0.407 31.32 5.4583 0.501 1.4371 0.9366 10.902 0.9366 21.435 0 15.026-0.1579 19.414-1.2071 21.442-2.8604 5.5314-0.935 5.3445-54.004 5.3445l-48.02 0.1773 0.1345 36.444c0.2618 35.862 0.2843 36.283 2.2941 40.724 2.4998 5.5226 7.3596 10.672 12.051 12.39 2.9524 1.0806 13.49 0.9951 64.747 1.0473l60.885 0.204 0.1629-72.032c0-47.796-0.5102-73.382-1.1393-76.315-1.2144-5.6625-5.1438-10.709-9.9104-13.255l-3.4379-2.1312-56.167 0.2074-56.168-0.2214zm147.06-0.1142c0 0.2716 14.026 20.247 31.033 44.048s30.749 43.664 30.605 44.049-13.622 16.767-29.878 36.555-30.098 36.532-30.732 37.416c-1.0961 1.528-0.4873 1.6817 9.0101 1.6818l9.8614-0.036 24.758-29.676c13.58-16.288 25.268-30.403 26.038-31.396 1.3461-1.7345 2.1403-0.2481 23.692 29.926l22.411 31.217 22.295-0.082 22.295-0.082-32.326-45.758c-27.834-39.749-32.024-46.23-31.046-47.478 0.6222-0.7938 13.718-16.385 29.027-34.837s28.229-34.238 28.598-34.835c0.5175-0.8374-1.8891-0.8195-10.293-0.8195l-10.72-0.3892-14.938 18.492c-8.2282 10.029-19.035 22.908-23.904 28.815l-8.9643 10.752-20.259-29.081-20.258-28.652-23.153 0.086c-12.796 0-23.153-0.1861-23.153 0.086zm192.09 0.1484-4.7085 2.1612c-5.6597 2.5574-10.215 7.6868-11.529 12.905-1.3241 5.2588-1.6926 125.47-0.3716 131.63 1.4837 6.9183 5.3578 12.445 10.774 14.967l4.7242 2.1263 55.309-0.2042 55.309-0.2041 4.7083-2.1612c5.3977-2.5618 9.2309-8.1169 10.664-15.046 1.2752-6.1692 0.4493-126.38-0.9146-131.63-1.3529-5.2088-6.3742-10.303-12.053-12.818l-4.2954-2.128-54.022 0.6282v-0.4287l-53.594 0.1978zm27.51 18.764 26.156 0.3322 26.154-0.096 2.1516 2.1358 2.1517 2.1359 0.076 20.58 0.5063 21.007 0.9509 25.293 0.089 24.01 0.087 23.582-2.1374 1.7229c-4.3764 3.4951-8.7199 4.2429-29.568 4.3967-20.849 0-25.198-0.7156-29.6-4.1782l-2.1501-1.7072-0.087-23.582-0.089-24.01 0.7642-25.3 0.3511-21.01-0.076-20.58 2.1358-2.1517 2.1343-2.5804zm-335.02 73.697c3.7589-0.244 10.921-0.09 24.439-0.09 26.075 1e-4 27.536-0.019 29.162 1.6073 2.53 2.5301 2.9715 5.5962 2.6691 26.145-0.2486 16.885-0.5469 18.91-2.0679 20.588-1.6405 1.8107-2.3447 1.8243-29.578 1.8243-23.824 0-28.345-0.4315-30.019-1.6042-1.9362-1.3565-1.8005-1.5638-1.8005-23.146 0-21.702 0.029-21.684 2.0567-23.589 1.0032-0.9425 1.3798-1.49 5.1387-1.734z" fill="#fff"/>
    </g>
    <path d="m1730.1-187.6h27.022a3.0305 3.0305 0 0 1 3.0305 3.0305v15.657a3.0305 3.0305 0 0 1 -3.0305 3.0305h-27.022a3.0305 3.0305 0 0 1 -3.0305 -3.0305v-15.657a3.0305 3.0305 0 0 1 3.0305 -3.0305"/>
    <g transform="scale(.9801,1.0203)" fill="#fff" font-family="FreeSans" font-size="19.026" font-weight="bold" letter-spacing="0" word-spacing="0">
     <path d="m1773.3406-166.21112c-.4693.0888-.9577.13318-1.465.13318s-1.0021-.0444-1.4841-.13318c-.4693-.0888-.9577-.24735-1.465-.47567-.4947-.22831-.926-.52005-1.2938-.87522s-.6723-.82447-.9133-1.40796c-.2283-.59616-.3425-1.26842-.3425-2.0168v-9.39909h2.854v9.39909c0,1.64896.8815,2.47344 2.6447,2.47344s2.6446-.82448 2.6447-2.47344v-9.39909h2.8539v9.39909c0,.74838-.1205,1.42064-.3615,2.0168-.2283.58349-.5264,1.0528-.8942,1.40796s-.8055.64691-1.3128.87522c-.4947.22832-.9831.38687-1.4651.47567"/>
     <path d="m1788.0606-168.89386c0-.38053.01-.67861.019-.89424s.019-.4059.019-.5708c0-.58347-.1395-1.00206-.4186-1.25575-.279-.26636-.7293-.39955-1.3508-.39955h-3.2726v5.49865h-2.854v-13.87031h7.4394c.7103,2e-005 1.3192.12052 1.8265.36151 .5201.24101.907.55812 1.1607.95132 .2663.39323.4566.79278.5707,1.19867 .1142.39322.1713.80546.1713,1.23672 0,1.67434-.7801,2.81593-2.3403,3.42477 .3425.13953.5962.25369.7611.34248 .1649.0761.3298.20929.4947.39955 .1775.19027.2917.36151.3425.51372 .063.15221.1204.43127.1712.83716 .063.4059.1015.80546.1141,1.19867s.025.9767.038,1.75044c0,.53274.2029.91327.6088,1.14159v.51371h-3.0632c-.1776-.32979-.2981-.6469-.3615-.95132-.051-.30443-.076-.78009-.076-1.42699m.4566-7.34422c0-.71031-.1649-1.17963-.4947-1.40796-.3298-.24099-.8372-.36149-1.5221-.36151h-3.4438v3.61504h3.4438c.6723,0 1.1733-.1205 1.5031-.36151 .3425-.24099.5137-.73568.5137-1.48406"/>
    </g>
    <g transform="scale(.9801,1.0203)" fill="#00f" font-family="FreeSans" font-size="28.458" font-weight="bold" letter-spacing="0" word-spacing="0">
     <path d="m1777.9783-150.03105c0,1.82129-.1613,3.4244-.4838,4.80933s-.7304,2.47581-1.2237,3.27262c-.4743.79681-1.0529,1.44185-1.7359,1.93511-.683.47429-1.3375.78732-1.9635.9391-.6261.17074-1.2996.25612-2.0205.25612-1.7454,0-3.2063-.50275-4.3825-1.50825-1.1573-1.02447-1.7549-2.31455-1.7928-3.87023h3.8417c.038.58813.2751,1.06242.7115,1.42288 .4553.36046 1.0339.54069 1.7359.54069 2.2197,0 3.3295-1.91614 3.3295-5.74843-.019.019-.095.11384-.2276.28458-.1328.15178-.2467.2751-.3415.36995l-.37.36995c-.1707.15178-.351.27509-.5407.36994-.1707.0949-.3794.19921-.626.31304-.2277.0949-.4933.17075-.7968.22766-.3036.0379-.6261.0569-.9676.0569-1.7833,1e-005-3.2347-.64503-4.354-1.93511s-1.679-2.97855-1.679-5.06545c0-2.10584.6261-3.81329 1.8782-5.12236 1.2711-1.328 2.9122-1.99201 4.9232-1.99203 .645,2e-005 1.2616.0759 1.8497.22766 .5881.13283 1.2047.42689 1.8497.88219 .664.43637 1.2332,1.00552 1.7075,1.70745 .4932.70197.8916,1.67901 1.1952,2.93113 .3225,1.25215.4838,2.69399.4838,4.32555m-7.1998-6.82981c-.8916,1e-005-1.6031.35099-2.1343,1.05292-.5122.683-.7683,1.60313-.7683,2.76039s.2656,2.07741.7968,2.76038c.5312.66402 1.2521.99603 2.1627.99602s1.6506-.34149 2.2197-1.02448 .8537-1.57464.8538-2.67501c-.0001-1.17623-.2846-2.11533-.8538-2.8173-.5502-.70193-1.309-1.05291-2.2766-1.05292"/>
     <path d="m1790.3186-139.64404c-.9296.5312-2.0679.79681-3.4149.79681s-2.4853-.26561-3.4149-.79681c-.9296-.55018-1.6505-1.32802-2.1627-2.33352-.4933-1.0055-.8443-2.10586-1.053-3.30108-.2087-1.21418-.313-2.6086-.313-4.18326 0-3.85124.5691-6.53574 1.7074-8.05349 1.2522-1.7264 2.9976-2.58962 5.2362-2.58964 2.4474,2e-005 4.2876.99604 5.5208,2.98805 .9486,1.53672 1.4229,4.12636 1.4229,7.76891 0,1.51775-.1044,2.87422-.3131,4.06943-.2087,1.17625-.5596,2.27661-1.0529,3.30108-.4933,1.0055-1.2142,1.78334-2.1628,2.33352m-.4553-9.7894c0-2.02996-.1328-3.60461-.3984-4.72396-.2466-1.11931-.5691-1.84972-.9675-2.19123-.3985-.36044-.9297-.54068-1.5937-.54069-1.0624,1e-005-1.8213.54071-2.2766,1.62208-.4553,1.06243-.683,2.98805-.683,5.77688 0,1.93512.1234,3.45286.37,4.55321 .2466,1.08139.5691,1.80232.9676,2.16278 .4173.34149.958.51223 1.622.51223 1.1573,0 1.9731-.61657 2.4474-1.84974 .3415-.94858.5122-2.72243.5122-5.32156"/>
    </g>
    <path d="m1326.5-225.69c-2.5721 0-4.6562 2.053-4.6562 4.625v141.44c0 2.572 2.0841 4.625 4.6562 4.625h453.56c2.5721 0 4.6563-2.053 4.6563-4.625v-141.44c0-2.572-2.0842-4.625-4.6563-4.625h-453.56zm3.125 6.9376h447.31c2.5722 0 4.625 2.0528 4.625 4.625v101.84c0 2.5721-2.0528 4.625-4.625 4.625h-447.31c-2.5722 0-4.625-2.0528-4.625-4.625v-101.84c0-2.5722 2.0528-4.625 4.625-4.625z" fill="#f00" stroke="#f00" stroke-linecap="round" stroke-width="2"/>
    <g transform="translate(-301.03 -989.95)">
     <g transform="translate(-1.443e-5 384.87)">
      <use transform="translate(69.195)" width="1098.4252" height="1452.7559"/>
      <use transform="matrix(.98 0 0 1 105.39 0)" width="1098.4252" height="1452.7559"/>
      <use transform="matrix(.96 0 0 1 141.58 0)" width="1098.4252" height="1452.7559"/>
      <use transform="matrix(.94 0 0 1 177.78 0)" width="1098.4252" height="1452.7559"/>
      <use transform="matrix(.92 0 0 1 213.97 0)" width="1098.4252" height="1452.7559"/>
      <use transform="matrix(.9 0 0 1 250.16 0)" width="1098.4252" height="1452.7559"/>
      <use transform="matrix(.88 0 0 1 286.36 0)" width="1098.4252" height="1452.7559"/>
      <use transform="matrix(.86 0 0 1 322.55 0)" width="1098.4252" height="1452.7559"/>
      <use transform="matrix(.84 0 0 1 358.75 0)" width="1098.4252" height="1452.7559"/>
      <use transform="matrix(.82 0 0 1 394.94 0)" width="1098.4252" height="1452.7559"/>
      <use transform="matrix(.8 0 0 1 431.13 0)" width="1098.4252" height="1452.7559"/>
      <use transform="matrix(.78 0 0 1 467.33 0)" width="1098.4252" height="1452.7559"/>
      <use transform="matrix(.76 0 0 1 503.52 0)" width="1098.4252" height="1452.7559"/>
      <use transform="matrix(.74 0 0 1 539.71 0)" width="1098.4252" height="1452.7559"/>
      <use transform="matrix(.72 0 0 1 575.91 0)" width="1098.4252" height="1452.7559"/>
      <use transform="matrix(.7 0 0 1 612.1 0)" width="1098.4252" height="1452.7559"/>
      <use transform="matrix(.68 0 0 1 648.3 0)" width="1098.4252" height="1452.7559"/>
      <use transform="matrix(.66 0 0 1 684.49 0)" width="1098.4252" height="1452.7559"/>
      <use transform="matrix(.64 0 0 1 720.68 0)" width="1098.4252" height="1452.7559"/>
      <use transform="matrix(.62 0 0 1 756.88 0)" width="1098.4252" height="1452.7559"/>
      <use transform="matrix(.6 0 0 1 793.07 0)" width="1098.4252" height="1452.7559"/>
      <use transform="matrix(.58 0 0 1 829.26 0)" width="1098.4252" height="1452.7559"/>
      <use transform="matrix(.56 0 0 1 865.46 0)" width="1098.4252" height="1452.7559"/>
      <use transform="matrix(.54 0 0 1 901.65 0)" width="1098.4252" height="1452.7559"/>
      <use transform="matrix(.52 0 0 1 937.85 0)" width="1098.4252" height="1452.7559"/>
      <use transform="matrix(.5 0 0 1 974.04 0)" width="1098.4252" height="1452.7559"/>
      <use transform="matrix(.48 0 0 1 1010.2 0)" width="1098.4252" height="1452.7559"/>
      <use transform="matrix(.46 0 0 1 1046.4 0)" width="1098.4252" height="1452.7559"/>
      <use transform="matrix(.44 0 0 1 1082.6 0)" width="1098.4252" height="1452.7559"/>
      <use transform="matrix(.42 0 0 1 1118.8 0)" width="1098.4252" height="1452.7559"/>
     </g>
     <g transform="translate(154.05 384.87)">
      <use transform="translate(69.195)" width="1098.4252" height="1452.7559"/>
      <use transform="matrix(.98 0 0 1 105.39 0)" width="1098.4252" height="1452.7559"/>
      <use transform="matrix(.96 0 0 1 141.58 0)" width="1098.4252" height="1452.7559"/>
      <use transform="matrix(.94 0 0 1 177.78 0)" width="1098.4252" height="1452.7559"/>
      <use transform="matrix(.92 0 0 1 213.97 0)" width="1098.4252" height="1452.7559"/>
      <use transform="matrix(.9 0 0 1 250.16 0)" width="1098.4252" height="1452.7559"/>
      <use transform="matrix(.88 0 0 1 286.36 0)" width="1098.4252" height="1452.7559"/>
      <use transform="matrix(.86 0 0 1 322.55 0)" width="1098.4252" height="1452.7559"/>
      <use transform="matrix(.84 0 0 1 358.75 0)" width="1098.4252" height="1452.7559"/>
      <use transform="matrix(.82 0 0 1 394.94 0)" width="1098.4252" height="1452.7559"/>
      <use transform="matrix(.8 0 0 1 431.13 0)" width="1098.4252" height="1452.7559"/>
      <use transform="matrix(.78 0 0 1 467.33 0)" width="1098.4252" height="1452.7559"/>
      <use transform="matrix(.76 0 0 1 503.52 0)" width="1098.4252" height="1452.7559"/>
      <use transform="matrix(.74 0 0 1 539.71 0)" width="1098.4252" height="1452.7559"/>
      <use transform="matrix(.72 0 0 1 575.91 0)" width="1098.4252" height="1452.7559"/>
      <use transform="matrix(.7 0 0 1 612.1 0)" width="1098.4252" height="1452.7559"/>
      <use transform="matrix(.68 0 0 1 648.3 0)" width="1098.4252" height="1452.7559"/>
      <use transform="matrix(.66 0 0 1 684.49 0)" width="1098.4252" height="1452.7559"/>
      <use transform="matrix(.64 0 0 1 720.68 0)" width="1098.4252" height="1452.7559"/>
      <use transform="matrix(.62 0 0 1 756.88 0)" width="1098.4252" height="1452.7559"/>
      <use transform="matrix(.6 0 0 1 793.07 0)" width="1098.4252" height="1452.7559"/>
      <use transform="matrix(.58 0 0 1 829.26 0)" width="1098.4252" height="1452.7559"/>
      <use transform="matrix(.56 0 0 1 865.46 0)" width="1098.4252" height="1452.7559"/>
      <use transform="matrix(.54 0 0 1 901.65 0)" width="1098.4252" height="1452.7559"/>
      <use transform="matrix(.52 0 0 1 937.85 0)" width="1098.4252" height="1452.7559"/>
      <use transform="matrix(.5 0 0 1 974.04 0)" width="1098.4252" height="1452.7559"/>
      <use transform="matrix(.48 0 0 1 1010.2 0)" width="1098.4252" height="1452.7559"/>
      <use transform="matrix(.46 0 0 1 1046.4 0)" width="1098.4252" height="1452.7559"/>
      <use transform="matrix(.44 0 0 1 1082.6 0)" width="1098.4252" height="1452.7559"/>
      <use transform="matrix(.42 0 0 1 1118.8 0)" width="1098.4252" height="1452.7559"/>
     </g>
     <g transform="translate(308.1 384.87)">
      <use transform="translate(69.195)" width="1098.4252" height="1452.7559"/>
      <use transform="matrix(.98 0 0 1 105.39 0)" width="1098.4252" height="1452.7559"/>
      <use transform="matrix(.96 0 0 1 141.58 0)" width="1098.4252" height="1452.7559"/>
      <use transform="matrix(.94 0 0 1 177.78 0)" width="1098.4252" height="1452.7559"/>
      <use transform="matrix(.92 0 0 1 213.97 0)" width="1098.4252" height="1452.7559"/>
      <use transform="matrix(.9 0 0 1 250.16 0)" width="1098.4252" height="1452.7559"/>
      <use transform="matrix(.88 0 0 1 286.36 0)" width="1098.4252" height="1452.7559"/>
      <use transform="matrix(.86 0 0 1 322.55 0)" width="1098.4252" height="1452.7559"/>
      <use transform="matrix(.84 0 0 1 358.75 0)" width="1098.4252" height="1452.7559"/>
      <use transform="matrix(.82 0 0 1 394.94 0)" width="1098.4252" height="1452.7559"/>
      <use transform="matrix(.8 0 0 1 431.13 0)" width="1098.4252" height="1452.7559"/>
      <use transform="matrix(.78 0 0 1 467.33 0)" width="1098.4252" height="1452.7559"/>
      <use transform="matrix(.76 0 0 1 503.52 0)" width="1098.4252" height="1452.7559"/>
      <use transform="matrix(.74 0 0 1 539.71 0)" width="1098.4252" height="1452.7559"/>
      <use transform="matrix(.72 0 0 1 575.91 0)" width="1098.4252" height="1452.7559"/>
      <use transform="matrix(.7 0 0 1 612.1 0)" width="1098.4252" height="1452.7559"/>
      <use transform="matrix(.68 0 0 1 648.3 0)" width="1098.4252" height="1452.7559"/>
      <use transform="matrix(.66 0 0 1 684.49 0)" width="1098.4252" height="1452.7559"/>
      <use transform="matrix(.64 0 0 1 720.68 0)" width="1098.4252" height="1452.7559"/>
      <use transform="matrix(.62 0 0 1 756.88 0)" width="1098.4252" height="1452.7559"/>
      <use transform="matrix(.6 0 0 1 793.07 0)" width="1098.4252" height="1452.7559"/>
      <use transform="matrix(.58 0 0 1 829.26 0)" width="1098.4252" height="1452.7559"/>
      <use transform="matrix(.56 0 0 1 865.46 0)" width="1098.4252" height="1452.7559"/>
      <use transform="matrix(.54 0 0 1 901.65 0)" width="1098.4252" height="1452.7559"/>
      <use transform="matrix(.52 0 0 1 937.85 0)" width="1098.4252" height="1452.7559"/>
      <use transform="matrix(.5 0 0 1 974.04 0)" width="1098.4252" height="1452.7559"/>
      <use transform="matrix(.48 0 0 1 1010.2 0)" width="1098.4252" height="1452.7559"/>
      <use transform="matrix(.46 0 0 1 1046.4 0)" width="1098.4252" height="1452.7559"/>
      <use transform="matrix(.44 0 0 1 1082.6 0)" width="1098.4252" height="1452.7559"/>
      <use transform="matrix(.42 0 0 1 1118.8 0)" width="1098.4252" height="1452.7559"/>
     </g>
    </g>
    <g transform="scale(.9801,1.0203)" fill="#fff" font-family="FreeSans" font-size="9.2514" font-weight="bold" letter-spacing="0" word-spacing="0">
     <path d="m1541.5867-98.57948v2.40535h-1.3877v-6.74424h2.9789c.7031,1e-005 1.2397.17887 1.6097.53658 .3762.35773.5644.8758.5644,1.55423s-.1851,1.23043-.5551,1.63749-.8635.61059-1.4802.61059h-1.73m0-1.15642h1.2951c.7216,4e-006 1.0825-.33613 1.0825-1.0084 0-.34538-.09-.60133-.2683-.76786-.1727-.16652-.4441-.24978-.8142-.24979h-1.2951v2.02605"/>
     <path d="m1546.753-96.95124c-.5921-.65993-.8882-1.50797-.8882-2.54412s.2961-1.88419.8882-2.54413c.5982-.65992 1.3815-.98989 2.3498-.98989s1.7608.32997 2.3591.98989c.5983.65377.8974,1.51723.8974,2.59038 0,.99915-.2961,1.83177-.8881,2.49787-.586.65993-1.3723.98989-2.3591.9899-.9807-1e-006-1.7671-.32997-2.3591-.9899m2.3591-4.89397c-.5613,1e-005-1.0115.21587-1.3507.6476s-.5089.99298-.5089,1.70225 .1696,1.27977.5089,1.7115 .7894.63834 1.3507.63834 1.0022-.21278 1.3414-.63834c.3454-.42556.5181-.98373.5181-1.6745 0-.72777-.1696-1.30752-.5088-1.73925-.3331-.43173-.7833-.64759-1.3507-.6476"/>
     <path d="m1558.1212-100.86457h-1.2952c-.049-.70309-.5212-1.05465-1.4155-1.05465-.3577,0-.6414.0771-.8511.23128s-.3146.34848-.3146.60134 .09.43174.2683.55508 .515.22512 1.0084.3238l1.0547.20353c.6229.12336 1.0762.33305 1.3599.62909 .2837.28988.4256.70002.4256,1.23043 0,.6846-.2436,1.22118-.7309,1.60974-.4872.38239-1.1656.57358-2.0353.57359-.8634-1e-006-1.5357-.1912-2.0168-.57359-.4749-.38239-.7339-.93439-.7771-1.65599h1.3507c.025.36389.1665.64143.4256.83262s.6229.28679 1.0916.28679c.4194,1e-006 .7494-.08018.9899-.24054 .2467-.16036.3701-.38239.3701-.6661 0-.27137-.096-.48107-.2868-.62909s-.5181-.2652-.9806-.35155l-.9437-.18503c-.6846-.12951-1.1718-.33304-1.4617-.61059s-.4348-.67843-.4348-1.20268c0-.65992.222-1.16875.6661-1.52647 .4502-.36388 1.0793-.54583 1.8873-.54583 .2343,0 .4594.0154.6753.0463s.4564.0956.7031.19428c.2467.0925.4595.21587.6384.37006s.3268.35772.444.62909 .185.57359.1851.92513"/>
     <path d="m1560.7-102.92v6.7442h-1.3877v-6.7442h1.3877"/>
     <path d="m1564.8-101.76v5.5878h-1.3877v-5.5878h-2.0446v-1.1564h5.4028v1.1564h-1.9705"/>
     <path d="m1568.9-102.92v6.7442h-1.3877v-6.7442h1.3877"/>
     <path d="m1570.7306-96.95124c-.5921-.65993-.8881-1.50797-.8881-2.54412s.296-1.88419.8881-2.54413c.5983-.65992 1.3815-.98989 2.3499-.98989s1.7608.32997 2.3591.98989c.5982.65377.8973,1.51723.8973,2.59038 0,.99915-.296,1.83177-.8881,2.49787-.5859.65993-1.3723.98989-2.3591.9899-.9806-1e-006-1.767-.32997-2.3591-.9899m2.3591-4.89397c-.5612,1e-005-1.0115.21587-1.3507.6476s-.5088.99298-.5088,1.70225 .1696,1.27977.5088,1.7115 .7895.63834 1.3507.63834 1.0022-.21278 1.3415-.63834c.3453-.42556.518-.98373.518-1.6745 0-.72777-.1696-1.30752-.5088-1.73925-.333-.43173-.7833-.64759-1.3507-.6476"/>
     <path d="m1581.4-96.174-2.7107-4.6627v4.6627h-1.3877v-6.7442h1.4247l2.6737 4.5887v-4.5887h1.3877v6.7442h-1.3877"/>
     <path d="m1590.6-96.174-2.7106-4.6627v4.6627h-1.3877v-6.7442h1.4247l2.6736 4.5887v-4.5887h1.3877v6.7442h-1.3877"/>
     <path d="m1593.859-96.95124c-.5921-.65993-.8881-1.50797-.8881-2.54412s.296-1.88419.8881-2.54413c.5983-.65992 1.3815-.98989 2.3499-.98989s1.7608.32997 2.3591.98989c.5982.65377.8973,1.51723.8973,2.59038 0,.99915-.296,1.83177-.8881,2.49787-.5859.65993-1.3723.98989-2.3591.9899-.9806-1e-006-1.767-.32997-2.3591-.9899m2.3591-4.89397c-.5612,1e-005-1.0115.21587-1.3507.6476s-.5088.99298-.5088,1.70225 .1696,1.27977.5088,1.7115 .7895.63834 1.3507.63834 1.0022-.21278 1.3415-.63834c.3453-.42556.518-.98373.518-1.6745 0-.72777-.1696-1.30752-.5088-1.73925-.333-.43173-.7833-.64759-1.3507-.6476"/>
     <path d="m1604.3532-97.33055c0-.18503 0-.32996.01-.43481s.01-.19736.01-.27754c0-.28371-.068-.48724-.2035-.61059-.1357-.12952-.3546-.19428-.6568-.19428h-1.5913v2.67364h-1.3877v-6.74424h3.6173c.3454,1e-005 .6414.0586.8881.17578s.441.27138.5644.46257c.1295.1912.222.38548.2775.58283 .055.1912.083.39165.083.60134 0,.81412-.3793,1.36921-1.1379,1.66525 .1665.06785.2898.12336.37.16653s.1604.10177.2405.19428c.086.09252.1419.17578.1666.24979 .031.07401.059.2097.083.40706 .031.19736.049.39164.055.58284s.012.4749.018.85113c0,.25904.099.44407.2961.55508v.24979h-1.4895c-.086-.16036-.1449-.31455-.1758-.46257s-.037-.37931-.037-.69385m.2221-3.57102c0-.34538-.08-.57358-.2406-.6846-.1603-.11718-.407-.17577-.7401-.17578h-1.6745v1.75776h1.6745c.3269,0 .5705-.0586.7309-.17577 .1665-.11718.2498-.35772.2498-.72161"/>
     <path d="m1608.5-101.43v5.2548h-1.3877v-6.7442h2.0723l1.2211 5.3658 1.1842-5.3658h2.0908v6.7442h-1.3877v-5.2548l-1.1934 5.2548h-1.3877l-1.2119-5.2548"/>
     <path d="m1618.8-97.534h-2.5256l-0.4533 1.36h-1.4155l2.3961-6.7442h1.5357l2.3314 6.7442h-1.4247l-0.4441-1.36m-0.3793-1.1564-0.8789-2.6366-0.8789 2.6366h1.7578"/>
     <path d="m1623-102.92v5.5878h3.2288v1.1564h-4.6165v-6.7442h1.3877"/>
    </g>
   </g>
   <path transform="translate(-1573.8 -364.47)" d="m1607.9 693.35c0 5.0305-4.078 9.1086-9.1086 9.1086s-9.1085-4.078-9.1085-9.1086 4.078-9.1086 9.1085-9.1086 9.1086 4.078 9.1086 9.1086z" fill="#1a1a1a" stroke="#000" stroke-linecap="round"/>
   <path transform="matrix(1.0598 0 0 1.0598 -1669.5 -404.19)" d="m1605.1 693.35c0 3.4963-2.8343 6.3306-6.3307 6.3306s-6.3306-2.8343-6.3306-6.3306 2.8343-6.3306 6.3306-6.3306 6.3307 2.8343 6.3307 6.3306z" fill="#666" opacity=".5"/>
   <g transform="matrix(.7616 0 0 .7616 -1159.4 -187.85)" stroke="#000" stroke-linecap="round" stroke-width="2">
    <path transform="translate(0 -400.39)" d="m1555.1 1071.9v13.89"/>
    <path d="m1562.1 678.48h-13.89"/>
   </g>
   <path transform="translate(-1079.4 -364.47)" d="m1607.9 693.35c0 5.0305-4.078 9.1086-9.1086 9.1086s-9.1085-4.078-9.1085-9.1086 4.078-9.1086 9.1085-9.1086 9.1086 4.078 9.1086 9.1086z" fill="#1a1a1a" stroke="#000" stroke-linecap="round"/>
   <path transform="matrix(1.0598 0 0 1.0598 -1175.1 -404.19)" d="m1605.1 693.35c0 3.4963-2.8343 6.3306-6.3307 6.3306s-6.3306-2.8343-6.3306-6.3306 2.8343-6.3306 6.3306-6.3306 6.3307 2.8343 6.3307 6.3306z" fill="#666" opacity=".5"/>
   <g transform="matrix(.7616 0 0 .7616 -665.05 -187.85)" stroke="#000" stroke-linecap="round" stroke-width="2">
    <path transform="translate(0 -400.39)" d="m1555.1 1071.9v13.89"/>
    <path d="m1562.1 678.48h-13.89"/>
   </g>
   <path transform="translate(-1079.4 -55.367)" d="m1607.9 693.35c0 5.0305-4.078 9.1086-9.1086 9.1086s-9.1085-4.078-9.1085-9.1086 4.078-9.1086 9.1085-9.1086 9.1086 4.078 9.1086 9.1086z" fill="#1a1a1a" stroke="#000" stroke-linecap="round"/>
   <path transform="matrix(1.0598 0 0 1.0598 -1175.1 -95.088)" d="m1605.1 693.35c0 3.4963-2.8343 6.3306-6.3307 6.3306s-6.3306-2.8343-6.3306-6.3306 2.8343-6.3306 6.3306-6.3306 6.3307 2.8343 6.3307 6.3306z" fill="#666" opacity=".5"/>
   <g transform="matrix(.7616 0 0 .7616 -665.05 121.26)" stroke="#000" stroke-linecap="round" stroke-width="2">
    <path transform="translate(0 -400.39)" d="m1555.1 1071.9v13.89"/>
    <path d="m1562.1 678.48h-13.89"/>
   </g>
   <path transform="translate(-1573.8 -55.367)" d="m1607.9 693.35c0 5.0305-4.078 9.1086-9.1086 9.1086s-9.1085-4.078-9.1085-9.1086 4.078-9.1086 9.1085-9.1086 9.1086 4.078 9.1086 9.1086z" fill="#1a1a1a" stroke="#000" stroke-linecap="round"/>
   <path transform="matrix(1.0598 0 0 1.0598 -1669.5 -95.088)" d="m1605.1 693.35c0 3.4963-2.8343 6.3306-6.3307 6.3306s-6.3306-2.8343-6.3306-6.3306 2.8343-6.3306 6.3306-6.3306 6.3307 2.8343 6.3307 6.3306z" fill="#666" opacity=".5"/>
   <g transform="matrix(.7616 0 0 .7616 -1159.4 121.26)" stroke="#000" stroke-linecap="round" stroke-width="2">
    <path transform="translate(0 -400.39)" d="m1555.1 1071.9v13.89"/>
    <path d="m1562.1 678.48h-13.89"/>
   </g>
  </g>
  <g transform="matrix(.99999 .00369 -.00369 .99999 -1478.6 67.977)" fill="#fff" stroke="#f00" stroke-linecap="round">
   <path d="m1623.8 511.17h5.0508v15.657h-5.0508z"/>
   <path d="m1628.9 511.17h4.9498v15.657h-4.9498z" stroke-width=".98995"/>
   <path d="m1634 511.17h4.8487v15.657h-4.8487z" stroke-width=".9798"/>
   <path d="m1639.1 511.17h4.7477v15.657h-4.7477z" stroke-width=".96954"/>
   <path d="m1644.2 511.17h4.6467v15.657h-4.6467z" stroke-width=".95917"/>
   <path d="m1649.3 511.17h4.5457v15.657h-4.5457z" stroke-width=".94868"/>
   <path d="m1654.4 511.17h4.4447v15.657h-4.4447z" stroke-width=".93808"/>
   <path d="m1659.5 511.17h4.3437v15.657h-4.3437z" stroke-width=".92736"/>
   <path d="m1664.6 511.17h4.2426v15.657h-4.2426z" stroke-width=".91652"/>
   <path d="m1669.7 511.17h4.1416v15.657h-4.1416z" stroke-width=".90554"/>
   <path d="m1674.8 511.17h4.0406v15.657h-4.0406z" stroke-width=".89443"/>
   <path d="m1679.9 511.17h3.9396v15.657h-3.9396z" stroke-width=".88318"/>
   <path d="m1685 511.17h3.8386v15.657h-3.8386z" stroke-width=".87178"/>
   <path d="m1690.1 511.17h3.7376v15.657h-3.7376z" stroke-width=".86023"/>
   <path d="m1695.2 511.17h3.6366v15.657h-3.6366z" stroke-width=".84853"/>
   <path d="m1700.3 511.17h3.5355v15.657h-3.5355z" stroke-width=".83666"/>
   <path d="m1705.4 511.17h3.4345v15.657h-3.4345z" stroke-width=".82462"/>
   <path d="m1710.5 511.17h3.3335v15.657h-3.3335z" stroke-width=".8124"/>
   <path d="m1715.6 511.17h3.2325v15.657h-3.2325z" stroke-width=".8"/>
   <path d="m1720.7 511.17h3.1315v15.657h-3.1315z" stroke-width=".7874"/>
   <path d="m1725.8 511.17h3.0305v15.657h-3.0305z" stroke-width=".7746"/>
   <path d="m1730.9 511.17h2.9294v15.657h-2.9294z" stroke-width=".76158"/>
   <path d="m1736 511.17h2.8284v15.657h-2.8284z" stroke-width=".74833"/>
   <path d="m1741.1 511.17h2.7274v15.657h-2.7274z" stroke-width=".73485"/>
   <path d="m1746.3 511.17h2.6264v15.657h-2.6264z" stroke-width=".72111"/>
   <path d="m1751.4 511.17h2.5254v15.657h-2.5254z" stroke-width=".70711"/>
   <path d="m1756.5 511.17h2.4244v15.657h-2.4244z" stroke-width=".69282"/>
   <path d="m1761.6 511.17h2.3234v15.657h-2.3234z" stroke-width=".67823"/>
   <path d="m1766.7 511.17h2.2223v15.657h-2.2223z" stroke-width=".66332"/>
   <path d="m1771.8 511.17h2.1213v15.657h-2.1213z" stroke-width=".64807"/>
  </g>
  <g transform="matrix(.99999 .00369 -.00369 .99999 -1324.6 68.545)" fill="#fff" stroke="#f00" stroke-linecap="round">
   <path d="m1623.8 511.17h5.0508v15.657h-5.0508z"/>
   <path d="m1628.9 511.17h4.9498v15.657h-4.9498z" stroke-width=".98995"/>
   <path d="m1634 511.17h4.8487v15.657h-4.8487z" stroke-width=".9798"/>
   <path d="m1639.1 511.17h4.7477v15.657h-4.7477z" stroke-width=".96954"/>
   <path d="m1644.2 511.17h4.6467v15.657h-4.6467z" stroke-width=".95917"/>
   <path d="m1649.3 511.17h4.5457v15.657h-4.5457z" stroke-width=".94868"/>
   <path d="m1654.4 511.17h4.4447v15.657h-4.4447z" stroke-width=".93808"/>
   <path d="m1659.5 511.17h4.3437v15.657h-4.3437z" stroke-width=".92736"/>
   <path d="m1664.6 511.17h4.2426v15.657h-4.2426z" stroke-width=".91652"/>
   <path d="m1669.7 511.17h4.1416v15.657h-4.1416z" stroke-width=".90554"/>
   <path d="m1674.8 511.17h4.0406v15.657h-4.0406z" stroke-width=".89443"/>
   <path d="m1679.9 511.17h3.9396v15.657h-3.9396z" stroke-width=".88318"/>
   <path d="m1685 511.17h3.8386v15.657h-3.8386z" stroke-width=".87178"/>
   <path d="m1690.1 511.17h3.7376v15.657h-3.7376z" stroke-width=".86023"/>
   <path d="m1695.2 511.17h3.6366v15.657h-3.6366z" stroke-width=".84853"/>
   <path d="m1700.3 511.17h3.5355v15.657h-3.5355z" stroke-width=".83666"/>
   <path d="m1705.4 511.17h3.4345v15.657h-3.4345z" stroke-width=".82462"/>
   <path d="m1710.5 511.17h3.3335v15.657h-3.3335z" stroke-width=".8124"/>
   <path d="m1715.6 511.17h3.2325v15.657h-3.2325z" stroke-width=".8"/>
   <path d="m1720.7 511.17h3.1315v15.657h-3.1315z" stroke-width=".7874"/>
   <path d="m1725.8 511.17h3.0305v15.657h-3.0305z" stroke-width=".7746"/>
   <path d="m1730.9 511.17h2.9294v15.657h-2.9294z" stroke-width=".76158"/>
   <path d="m1736 511.17h2.8284v15.657h-2.8284z" stroke-width=".74833"/>
   <path d="m1741.1 511.17h2.7274v15.657h-2.7274z" stroke-width=".73485"/>
   <path d="m1746.3 511.17h2.6264v15.657h-2.6264z" stroke-width=".72111"/>
   <path d="m1751.4 511.17h2.5254v15.657h-2.5254z" stroke-width=".70711"/>
   <path d="m1756.5 511.17h2.4244v15.657h-2.4244z" stroke-width=".69282"/>
   <path d="m1761.6 511.17h2.3234v15.657h-2.3234z" stroke-width=".67823"/>
   <path d="m1766.7 511.17h2.2223v15.657h-2.2223z" stroke-width=".66332"/>
   <path d="m1771.8 511.17h2.1213v15.657h-2.1213z" stroke-width=".64807"/>
  </g>
  <g transform="matrix(.99999 .00369 -.00369 .99999 -1170.6 69.114)" fill="#fff" stroke="#f00" stroke-linecap="round">
   <path d="m1623.8 511.17h5.0508v15.657h-5.0508z"/>
   <path d="m1628.9 511.17h4.9498v15.657h-4.9498z" stroke-width=".98995"/>
   <path d="m1634 511.17h4.8487v15.657h-4.8487z" stroke-width=".9798"/>
   <path d="m1639.1 511.17h4.7477v15.657h-4.7477z" stroke-width=".96954"/>
   <path d="m1644.2 511.17h4.6467v15.657h-4.6467z" stroke-width=".95917"/>
   <path d="m1649.3 511.17h4.5457v15.657h-4.5457z" stroke-width=".94868"/>
   <path d="m1654.4 511.17h4.4447v15.657h-4.4447z" stroke-width=".93808"/>
   <path d="m1659.5 511.17h4.3437v15.657h-4.3437z" stroke-width=".92736"/>
   <path d="m1664.6 511.17h4.2426v15.657h-4.2426z" stroke-width=".91652"/>
   <path d="m1669.7 511.17h4.1416v15.657h-4.1416z" stroke-width=".90554"/>
   <path d="m1674.8 511.17h4.0406v15.657h-4.0406z" stroke-width=".89443"/>
   <path d="m1679.9 511.17h3.9396v15.657h-3.9396z" stroke-width=".88318"/>
   <path d="m1685 511.17h3.8386v15.657h-3.8386z" stroke-width=".87178"/>
   <path d="m1690.1 511.17h3.7376v15.657h-3.7376z" stroke-width=".86023"/>
   <path d="m1695.2 511.17h3.6366v15.657h-3.6366z" stroke-width=".84853"/>
   <path d="m1700.3 511.17h3.5355v15.657h-3.5355z" stroke-width=".83666"/>
   <path d="m1705.4 511.17h3.4345v15.657h-3.4345z" stroke-width=".82462"/>
   <path d="m1710.5 511.17h3.3335v15.657h-3.3335z" stroke-width=".8124"/>
   <path d="m1715.6 511.17h3.2325v15.657h-3.2325z" stroke-width=".8"/>
   <path d="m1720.7 511.17h3.1315v15.657h-3.1315z" stroke-width=".7874"/>
   <path d="m1725.8 511.17h3.0305v15.657h-3.0305z" stroke-width=".7746"/>
   <path d="m1730.9 511.17h2.9294v15.657h-2.9294z" stroke-width=".76158"/>
   <path d="m1736 511.17h2.8284v15.657h-2.8284z" stroke-width=".74833"/>
   <path d="m1741.1 511.17h2.7274v15.657h-2.7274z" stroke-width=".73485"/>
   <path d="m1746.3 511.17h2.6264v15.657h-2.6264z" stroke-width=".72111"/>
   <path d="m1751.4 511.17h2.5254v15.657h-2.5254z" stroke-width=".70711"/>
   <path d="m1756.5 511.17h2.4244v15.657h-2.4244z" stroke-width=".69282"/>
   <path d="m1761.6 511.17h2.3234v15.657h-2.3234z" stroke-width=".67823"/>
   <path d="m1766.7 511.17h2.2223v15.657h-2.2223z" stroke-width=".66332"/>
   <path d="m1771.8 511.17h2.1213v15.657h-2.1213z" stroke-width=".64807"/>
  </g>
 </g>
</svg>
