<svg width="148" height="32" viewBox="0 0 148 32" fill="none" xmlns="http://www.w3.org/2000/svg">
<path d="M41.8233 14.9991H44.3193V12.8511H45.8553C46.3353 12.8511 46.7673 12.7671 47.1633 12.5991C47.5473 12.4311 47.8833 12.2031 48.1593 11.9151C48.4353 11.6391 48.6393 11.3031 48.7953 10.9311C48.9393 10.5591 49.0113 10.1511 49.0113 9.73109C49.0113 9.31109 48.9393 8.90309 48.7953 8.51909C48.6393 8.14709 48.4353 7.81109 48.1593 7.52309C47.8833 7.24709 47.5473 7.01909 47.1633 6.85109C46.7673 6.68309 46.3353 6.59909 45.8553 6.59909H41.8233V14.9991ZM44.3193 10.9191V8.54309H45.3633C45.6993 8.54309 45.9633 8.66309 46.1673 8.89109C46.3713 9.11909 46.4673 9.40709 46.4673 9.73109C46.4673 10.0551 46.3713 10.3431 46.1673 10.5711C45.9633 10.7991 45.6873 10.9191 45.3513 10.9191H44.3193Z" fill="#203548"/>
<path d="M59.5855 10.7991C59.5855 10.2231 59.4895 9.67109 59.2855 9.13109C59.0815 8.59109 58.7815 8.12309 58.3975 7.71509C58.0015 7.30709 57.5215 6.98309 56.9575 6.73109C56.3935 6.49109 55.7455 6.37109 55.0255 6.37109C54.3055 6.37109 53.6695 6.49109 53.1055 6.73109C52.5415 6.98309 52.0615 7.30709 51.6775 7.71509C51.2815 8.12309 50.9935 8.59109 50.7895 9.13109C50.5855 9.67109 50.4775 10.2231 50.4775 10.7991C50.4775 11.3751 50.5855 11.9271 50.7895 12.4671C50.9935 13.0071 51.2815 13.4751 51.6775 13.8831C52.0615 14.2911 52.5415 14.6151 53.1055 14.8551C53.6695 15.1071 54.3055 15.2271 55.0255 15.2271C55.7455 15.2271 56.3935 15.1071 56.9575 14.8551C57.5215 14.6151 58.0015 14.2911 58.3975 13.8831C58.7815 13.4751 59.0815 13.0071 59.2855 12.4671C59.4895 11.9271 59.5855 11.3751 59.5855 10.7991ZM52.9975 10.7991C52.9975 10.5231 53.0455 10.2471 53.1415 9.98309C53.2255 9.73109 53.3575 9.50309 53.5375 9.29909C53.7055 9.10709 53.9215 8.95109 54.1735 8.83109C54.4255 8.71109 54.7015 8.65109 55.0255 8.65109C55.3495 8.65109 55.6375 8.71109 55.8895 8.83109C56.1415 8.95109 56.3455 9.10709 56.5255 9.29909C56.6935 9.50309 56.8255 9.73109 56.9215 9.98309C57.0055 10.2471 57.0535 10.5231 57.0535 10.7991C57.0535 11.0751 57.0055 11.3511 56.9215 11.6031C56.8255 11.8671 56.6935 12.0951 56.5255 12.2871C56.3455 12.4911 56.1415 12.6471 55.8895 12.7671C55.6375 12.8871 55.3495 12.9471 55.0255 12.9471C54.7015 12.9471 54.4255 12.8871 54.1735 12.7671C53.9215 12.6471 53.7055 12.4911 53.5375 12.2871C53.3575 12.0951 53.2255 11.8671 53.1415 11.6031C53.0455 11.3511 52.9975 11.0751 52.9975 10.7991Z" fill="#203548"/>
<path d="M67.5761 11.6871C67.4921 12.0351 67.3001 12.3351 67.0001 12.5871C66.7001 12.8391 66.3161 12.9591 65.8481 12.9591C65.5241 12.9591 65.2241 12.8991 64.9721 12.7911C64.7201 12.6831 64.5041 12.5271 64.3241 12.3351C64.1441 12.1431 64.0001 11.9151 63.9041 11.6511C63.8081 11.3871 63.7601 11.0991 63.7601 10.7991C63.7601 10.5111 63.8081 10.2351 63.8921 9.97109C63.9761 9.71909 64.1081 9.49109 64.2761 9.28709C64.4441 9.09509 64.6601 8.93909 64.9121 8.81909C65.1641 8.69909 65.4641 8.63909 65.8001 8.63909C66.3161 8.63909 66.7241 8.77109 67.0241 9.04709C67.3241 9.32309 67.5041 9.65909 67.5761 10.0551H70.1921C70.1321 9.55109 70.0001 9.07109 69.7841 8.62709C69.5561 8.18309 69.2681 7.78709 68.8961 7.45109C68.5241 7.11509 68.0681 6.85109 67.5401 6.65909C67.0121 6.46709 66.4121 6.37109 65.7281 6.37109C65.0201 6.37109 64.3841 6.49109 63.8321 6.73109C63.2681 6.98309 62.8001 7.30709 62.4041 7.71509C62.0081 8.12309 61.7201 8.59109 61.5161 9.11909C61.3121 9.65909 61.2041 10.2111 61.2041 10.7991C61.2041 11.3871 61.3121 11.9391 61.5161 12.4791C61.7201 13.0191 62.0201 13.4871 62.4161 13.8951C62.8121 14.3031 63.2921 14.6271 63.8681 14.8671C64.4321 15.1071 65.0801 15.2271 65.8001 15.2271C66.4481 15.2271 67.0241 15.1311 67.5401 14.9391C68.0561 14.7591 68.5001 14.5071 68.8721 14.1831C69.2441 13.8591 69.5441 13.4871 69.7721 13.0551C70.0001 12.6231 70.1441 12.1671 70.2161 11.6871H67.5761Z" fill="#203548"/>
<path d="M77.0694 14.9991H79.5774V6.59909H77.0694V9.79109H74.7294V6.59909H72.2334V14.9991H74.7294V11.8671H77.0694V14.9991Z" fill="#203548"/>
<path d="M87.4579 8.47109V6.59909H82.0459V14.9991H87.4579V13.1271H84.5419V11.7231H87.4579V9.93509H84.5419V8.47109H87.4579Z" fill="#203548"/>
<path d="M91.0788 14.9991H93.5748V8.73509H95.3028V6.59909H89.3508V8.73509H91.0788V14.9991Z" fill="#203548"/>
<path d="M98.5124 14.9991H101.008V8.73509H102.736V6.59909H96.7844V8.73509H98.5124V14.9991Z" fill="#203548"/>
<path d="M110.122 8.47109V6.59909H104.71V14.9991H110.122V13.1271H107.206V11.7231H110.122V9.93509H107.206V8.47109H110.122Z" fill="#203548"/>
<path d="M38.1991 25.1431C38.4031 25.1431 38.6071 25.1071 38.7871 25.0351C38.9671 24.9511 39.1231 24.8431 39.2551 24.7111C39.3871 24.5791 39.4831 24.4351 39.5671 24.2551C39.6391 24.0871 39.6751 23.9071 39.6751 23.7031C39.6751 23.4991 39.6391 23.3191 39.5671 23.1391C39.4831 22.9711 39.3871 22.8151 39.2551 22.6831C39.1231 22.5511 38.9671 22.4551 38.7871 22.3711C38.6071 22.2991 38.4031 22.2631 38.1991 22.2631C37.9951 22.2631 37.8031 22.2991 37.6231 22.3711C37.4431 22.4551 37.2991 22.5511 37.1671 22.6831C37.0351 22.8151 36.9391 22.9711 36.8671 23.1391C36.7831 23.3191 36.7471 23.4991 36.7471 23.7031C36.7471 23.9071 36.7831 24.0871 36.8671 24.2551C36.9391 24.4351 37.0351 24.5791 37.1671 24.7111C37.2991 24.8431 37.4431 24.9511 37.6231 25.0351C37.8031 25.1071 37.9951 25.1431 38.1991 25.1431Z" fill="#203548"/>
<path d="M41.8897 24.9991H44.4097V16.5991H41.8897V24.9991Z" fill="#203548"/>
<path d="M49.4181 16.5991H46.8741V24.9991H49.3701V20.1871L52.1181 24.9991H54.6621V16.5991H52.1541V21.5791L49.4181 16.5991Z" fill="#203548"/>
<path d="M62.5439 18.6391V16.5991H57.1319V24.9991H59.6279V22.4671H62.5439V20.4991H59.6279V18.6391H62.5439Z" fill="#203548"/>
<path d="M73.5464 20.7991C73.5464 20.2231 73.4504 19.6711 73.2464 19.1311C73.0424 18.5911 72.7424 18.1231 72.3584 17.7151C71.9624 17.3071 71.4824 16.9831 70.9184 16.7311C70.3544 16.4911 69.7064 16.3711 68.9864 16.3711C68.2664 16.3711 67.6304 16.4911 67.0664 16.7311C66.5024 16.9831 66.0224 17.3071 65.6384 17.7151C65.2424 18.1231 64.9544 18.5911 64.7504 19.1311C64.5464 19.6711 64.4384 20.2231 64.4384 20.7991C64.4384 21.3751 64.5464 21.9271 64.7504 22.4671C64.9544 23.0071 65.2424 23.4751 65.6384 23.8831C66.0224 24.2911 66.5024 24.6151 67.0664 24.8551C67.6304 25.1071 68.2664 25.2271 68.9864 25.2271C69.7064 25.2271 70.3544 25.1071 70.9184 24.8551C71.4824 24.6151 71.9624 24.2911 72.3584 23.8831C72.7424 23.4751 73.0424 23.0071 73.2464 22.4671C73.4504 21.9271 73.5464 21.3751 73.5464 20.7991ZM66.9584 20.7991C66.9584 20.5231 67.0064 20.2471 67.1024 19.9831C67.1864 19.7311 67.3184 19.5031 67.4984 19.2991C67.6664 19.1071 67.8824 18.9511 68.1344 18.8311C68.3864 18.7111 68.6624 18.6511 68.9864 18.6511C69.3104 18.6511 69.5984 18.7111 69.8504 18.8311C70.1024 18.9511 70.3064 19.1071 70.4864 19.2991C70.6544 19.5031 70.7864 19.7311 70.8824 19.9831C70.9664 20.2471 71.0144 20.5231 71.0144 20.7991C71.0144 21.0751 70.9664 21.3511 70.8824 21.6031C70.7864 21.8671 70.6544 22.0951 70.4864 22.2871C70.3064 22.4911 70.1024 22.6471 69.8504 22.7671C69.5984 22.8871 69.3104 22.9471 68.9864 22.9471C68.6624 22.9471 68.3864 22.8871 68.1344 22.7671C67.8824 22.6471 67.6664 22.4911 67.4984 22.2871C67.3184 22.0951 67.1864 21.8671 67.1024 21.6031C67.0064 21.3511 66.9584 21.0751 66.9584 20.7991Z" fill="#203548"/>
<path d="M6.0498 16C6.0498 8.26801 12.4345 2 20.1665 2C27.8985 2 34.2831 8.26801 34.2831 16C34.2831 23.732 27.8985 30 20.1665 30C12.4345 30 6.0498 23.732 6.0498 16Z" fill="#203548"/>
<path fill-rule="evenodd" clip-rule="evenodd" d="M30.2499 2H2.0166V30H30.2499V2ZM16.1333 20C18.3608 20 20.1666 18.2091 20.1666 16C20.1666 13.7909 18.3608 12 16.1333 12C13.9057 12 12.0999 13.7909 12.0999 16C12.0999 18.2091 13.9057 20 16.1333 20Z" fill="#F5752C"/>
</svg>
