<svg width="24" height="24" viewBox="0 0 24 24" fill="none" xmlns="http://www.w3.org/2000/svg">
<path fill-rule="evenodd" clip-rule="evenodd" d="M6 1C5.20435 1 4.44129 1.31607 3.87868 1.87868C3.31607 2.44129 3 3.20435 3 4V20C3 20.7957 3.31607 21.5587 3.87868 22.1213C4.44129 22.6839 5.20435 23 6 23H18C18.7957 23 19.5587 22.6839 20.1213 22.1213C20.6839 21.5587 21 20.7957 21 20V9.41421C21 9.3328 20.995 9.25191 20.9853 9.17192C20.995 9.11607 21 9.05862 21 9C21 8.66187 20.8322 8.36294 20.5753 8.18195C20.5256 8.11842 20.4718 8.05763 20.4142 8L14 1.58579C13.9424 1.52815 13.8816 1.4744 13.818 1.4247C13.6371 1.16782 13.3381 1 13 1C12.9414 1 12.8839 1.00504 12.8281 1.01472C12.7481 1.00496 12.6672 1 12.5858 1H6ZM12 3H6C5.73478 3 5.48043 3.10536 5.29289 3.29289C5.10536 3.48043 5 3.73478 5 4V20C5 20.2652 5.10536 20.5196 5.29289 20.7071C5.48043 20.8946 5.73478 21 6 21H18C18.2652 21 18.5196 20.8946 18.7071 20.7071C18.8946 20.5196 19 20.2652 19 20V10H14C12.8954 10 12 9.10457 12 8V3ZM17.5858 8L14 4.41421V8H17.5858Z" fill="#8DA0B3"/>
</svg>
