<svg width="56" height="56" viewBox="0 0 56 56" fill="none" xmlns="http://www.w3.org/2000/svg">
    <g filter="url(#filter0_d)">
        <path d="M23 23C23 20.2386 25.2386 18 28 18V18C30.7614 18 33 20.2386 33 23V26H23V23Z" stroke="#8DA0B3" stroke-width="2" stroke-linecap="round" stroke-linejoin="round"/>
    </g>
    <g filter="url(#filter1_d)">
        <rect x="20" y="26" width="16" height="12" rx="2" fill="white"/>
        <rect x="20" y="26" width="16" height="12" rx="2" stroke="#8DA0B3" stroke-width="2" stroke-linecap="round" stroke-linejoin="round"/>
    </g>
    <circle cx="28" cy="32" r="2" stroke="#8DA0B3" stroke-width="2" stroke-linecap="round" stroke-linejoin="round"/>
    <path d="M33 5H45L51 11V16" stroke="#DCDFE1" stroke-width="2" stroke-linecap="round" stroke-linejoin="round"/>
    <circle cx="33" cy="5" r="2" fill="white" stroke="#DCDFE1" stroke-width="2" stroke-linecap="round" stroke-linejoin="round"/>
    <circle cx="51" cy="18" r="2" fill="white" stroke="#DCDFE1" stroke-width="2" stroke-linecap="round" stroke-linejoin="round"/>
    <path d="M15 45H7L3 49" stroke="#DCDFE1" stroke-width="2" stroke-linecap="round" stroke-linejoin="round"/>
    <circle cx="15" cy="45" r="2" fill="white" stroke="#DCDFE1" stroke-width="2" stroke-linecap="round" stroke-linejoin="round"/>
    <circle cx="3" cy="49" r="2" fill="white" stroke="#DCDFE1" stroke-width="2" stroke-linecap="round" stroke-linejoin="round"/>
    <path d="M28 45V53H19" stroke="#DCDFE1" stroke-width="2" stroke-linecap="round" stroke-linejoin="round"/>
    <circle cx="28" cy="47" r="2" fill="white" stroke="#DCDFE1" stroke-width="2" stroke-linecap="round" stroke-linejoin="round"/>
    <circle cx="19" cy="53" r="2" fill="white" stroke="#DCDFE1" stroke-width="2" stroke-linecap="round" stroke-linejoin="round"/>
    <path d="M11 28V36H5" stroke="#DCDFE1" stroke-width="2" stroke-linecap="round" stroke-linejoin="round"/>
    <circle cx="11" cy="27" r="2" fill="white" stroke="#DCDFE1" stroke-width="2" stroke-linecap="round" stroke-linejoin="round"/>
    <circle cx="5" cy="36" r="2" fill="white" stroke="#DCDFE1" stroke-width="2" stroke-linecap="round" stroke-linejoin="round"/>
    <path d="M10 7V15M10 15H18M10 15L3 21" stroke="#DCDFE1" stroke-width="2" stroke-linecap="round" stroke-linejoin="round"/>
    <circle cx="3" cy="21" r="2" fill="white" stroke="#DCDFE1" stroke-width="2" stroke-linecap="round" stroke-linejoin="round"/>
    <circle cx="10" cy="7" r="2" fill="white" stroke="#DCDFE1" stroke-width="2" stroke-linecap="round" stroke-linejoin="round"/>
    <circle cx="18" cy="15" r="2" fill="white" stroke="#DCDFE1" stroke-width="2" stroke-linecap="round" stroke-linejoin="round"/>
    <path d="M22 5L30 13H39" stroke="#DCDFE1" stroke-width="2" stroke-linecap="round" stroke-linejoin="round"/>
    <circle cx="22" cy="5" r="2" fill="white" stroke="#DCDFE1" stroke-width="2" stroke-linecap="round" stroke-linejoin="round"/>
    <circle cx="39" cy="13" r="2" fill="white" stroke="#DCDFE1" stroke-width="2" stroke-linecap="round" stroke-linejoin="round"/>
    <path d="M43 25L47 32M47 32V39M47 32L53 29" stroke="#DCDFE1" stroke-width="2" stroke-linecap="round" stroke-linejoin="round"/>
    <circle cx="43" cy="25" r="2" fill="white" stroke="#DCDFE1" stroke-width="2" stroke-linecap="round" stroke-linejoin="round"/>
    <circle cx="53" cy="29" r="2" fill="white" stroke="#DCDFE1" stroke-width="2" stroke-linecap="round" stroke-linejoin="round"/>
    <circle cx="47" cy="39" r="2" fill="white" stroke="#DCDFE1" stroke-width="2" stroke-linecap="round" stroke-linejoin="round"/>
    <path d="M38 47H46L50 51" stroke="#DCDFE1" stroke-width="2" stroke-linecap="round" stroke-linejoin="round"/>
    <circle cx="38" cy="47" r="2" fill="white" stroke="#DCDFE1" stroke-width="2" stroke-linecap="round" stroke-linejoin="round"/>
    <circle cx="50" cy="51" r="2" fill="white" stroke="#DCDFE1" stroke-width="2" stroke-linecap="round" stroke-linejoin="round"/>
    <defs>
        <filter id="filter0_d" x="22" y="17" width="14" height="12" filterUnits="userSpaceOnUse" color-interpolation-filters="sRGB">
            <feFlood flood-opacity="0" result="BackgroundImageFix"/>
            <feColorMatrix in="SourceAlpha" type="matrix" values="0 0 0 0 0 0 0 0 0 0 0 0 0 0 0 0 0 0 127 0"/>
            <feOffset dx="2" dy="2"/>
            <feColorMatrix type="matrix" values="0 0 0 0 0.94902 0 0 0 0 0.937255 0 0 0 0 0.941176 0 0 0 1 0"/>
            <feBlend mode="normal" in2="BackgroundImageFix" result="effect1_dropShadow"/>
            <feBlend mode="normal" in="SourceGraphic" in2="effect1_dropShadow" result="shape"/>
        </filter>
        <filter id="filter1_d" x="19" y="25" width="20" height="16" filterUnits="userSpaceOnUse" color-interpolation-filters="sRGB">
            <feFlood flood-opacity="0" result="BackgroundImageFix"/>
            <feColorMatrix in="SourceAlpha" type="matrix" values="0 0 0 0 0 0 0 0 0 0 0 0 0 0 0 0 0 0 127 0"/>
            <feOffset dx="2" dy="2"/>
            <feColorMatrix type="matrix" values="0 0 0 0 0.94902 0 0 0 0 0.937255 0 0 0 0 0.941176 0 0 0 1 0"/>
            <feBlend mode="normal" in2="BackgroundImageFix" result="effect1_dropShadow"/>
            <feBlend mode="normal" in="SourceGraphic" in2="effect1_dropShadow" result="shape"/>
        </filter>
    </defs>
</svg>
