<svg width="24" height="24" viewBox="0 0 24 24" fill="none" xmlns="http://www.w3.org/2000/svg">
<path fill-rule="evenodd" clip-rule="evenodd" d="M15.7914 10.6251C15.9414 10.525 16.0163 10.35 16.0163 10.1501C16.0163 9.99996 15.9913 9.89994 15.8913 9.80005C15.7913 9.70003 15.6413 9.62498 15.3914 9.52496L14.6414 9.25001C13.9913 9.00002 13.6663 8.57497 13.6663 7.99995C13.6663 7.62497 13.8164 7.29994 14.1163 7.07505C14.4164 6.85004 14.8163 6.72505 15.2913 6.72505C15.6664 6.72505 16.0414 6.8001 16.4164 6.92496C16.4913 6.95006 16.5414 6.97504 16.5664 7.02498C16.5913 7.07506 16.6163 7.125 16.6163 7.20005V7.45003C16.6163 7.55005 16.5664 7.6 16.4913 7.6C16.4663 7.6 16.3914 7.57503 16.2914 7.55005C15.9913 7.45003 15.6664 7.39996 15.3414 7.39996C14.7664 7.39996 14.4914 7.6 14.4914 7.97498C14.4914 8.15004 14.5414 8.25006 14.6414 8.34996C14.7163 8.44998 14.9164 8.55 15.1913 8.65001L15.8913 8.92497C16.2413 9.04997 16.4914 9.22503 16.6414 9.39997C16.7914 9.60001 16.8664 9.82502 16.8664 10.1251C16.8664 10.55 16.7163 10.875 16.3914 11.125C16.0664 11.375 15.6664 11.5 15.1414 11.5C14.6414 11.5 14.1914 11.425 13.7914 11.25C13.7164 11.225 13.6664 11.175 13.6413 11.15C13.6164 11.1 13.5914 11.05 13.5914 10.9751V10.7249C13.5914 10.6251 13.6164 10.575 13.6914 10.575C13.7414 10.575 13.8164 10.6 13.9164 10.6251C14.3164 10.75 14.7164 10.8 15.1414 10.8C15.4165 10.8 15.6413 10.7249 15.7914 10.6251ZM18.4664 5.14997C18.5664 5.22501 18.5913 5.37498 18.5913 5.52507C18.5913 5.67504 18.5414 5.80003 18.4414 5.90005C18.3414 6.00007 18.2164 6.05001 18.0414 6.05001C17.8664 6.05001 17.7414 6.00007 17.6414 5.90005C17.5413 5.825 17.4914 5.67504 17.4914 5.52507C17.4914 5.37498 17.5413 5.25011 17.6414 5.14997C17.7414 5.05007 17.8664 5 18.0414 5C18.2164 5 18.3663 5.05007 18.4664 5.14997ZM18.3164 6.85004C18.4414 6.85004 18.4913 6.92496 18.4913 7.02498V11.175C18.4913 11.3 18.4414 11.35 18.3164 11.35H17.7913C17.6664 11.35 17.6164 11.3 17.6164 11.175V7.02498C17.6164 6.89999 17.6664 6.85004 17.7913 6.85004H18.3164ZM20.6664 7.84999C20.4414 8.09997 20.3414 8.50005 20.3164 9.04997V9.17496C20.3164 9.70003 20.4164 10.1 20.6414 10.35C20.8664 10.6 21.2164 10.7249 21.6913 10.7249C21.9414 10.7249 22.2164 10.675 22.4913 10.6C22.5414 10.575 22.5914 10.575 22.6163 10.575C22.6914 10.575 22.7413 10.6249 22.7413 10.75V11C22.7413 11.075 22.7413 11.15 22.7164 11.175C22.6914 11.225 22.6414 11.25 22.5664 11.275C22.2914 11.4 21.9413 11.4499 21.5663 11.4499C20.8663 11.4499 20.3414 11.25 19.9664 10.8501C19.5914 10.45 19.4164 9.87497 19.4164 9.12501C19.4164 8.37506 19.6164 7.77506 19.9914 7.37499C20.3913 6.95006 20.9164 6.75002 21.6164 6.75002C21.9163 6.75002 22.2414 6.82507 22.5664 6.89999C22.6163 6.92496 22.6663 6.97504 22.6914 7.00001C22.7164 7.02498 22.7413 7.10003 22.7413 7.17507V7.42506C22.7413 7.55005 22.6914 7.6 22.6163 7.6C22.5664 7.6 22.5414 7.6 22.4664 7.57503C22.2414 7.49998 21.9914 7.47501 21.7414 7.47501C21.2413 7.47501 20.8914 7.6 20.6664 7.84999ZM7.11636 11.35C6.99137 11.35 6.94142 11.3 6.94142 11.175V8.30001C6.94142 8.00008 6.8665 7.80004 6.76648 7.65007C6.66646 7.49998 6.4914 7.42506 6.24141 7.42506C5.81636 7.42506 5.39143 7.55005 4.94141 7.82501C4.94141 7.84999 4.94141 7.90006 4.94141 7.95001V11.175C4.94141 11.3 4.89146 11.35 4.76647 11.35H4.2414C4.11641 11.35 4.06646 11.3 4.06646 11.175V8.30001C4.06646 7.99995 3.99142 7.80004 3.8914 7.65007C3.7915 7.49998 3.61644 7.42506 3.36645 7.42506C2.91643 7.42506 2.49138 7.57503 2.06645 7.82501V11.2001C2.06645 11.3251 2.01638 11.375 1.89139 11.375H1.36644C1.24145 11.375 1.1915 11.3251 1.1915 11.2001V7.05008C1.1915 6.92496 1.24145 6.87502 1.36644 6.87502H1.76639C1.81647 6.87502 1.86641 6.87502 1.89139 6.89999C1.94146 6.92496 1.96643 6.95006 1.96643 7.02498L2.01638 7.29994C2.56642 6.92496 3.11647 6.72505 3.66638 6.72505C4.21643 6.72505 4.59141 6.92496 4.79144 7.35001C5.36646 6.92496 5.96645 6.72505 6.54134 6.72505C6.96639 6.72505 7.26645 6.85004 7.49146 7.07505C7.71635 7.29994 7.81637 7.62497 7.81637 8.05002V11.175C7.81637 11.3 7.76642 11.35 7.64143 11.35H7.11636ZM11.8663 7.02498C11.8663 6.92496 11.9164 6.85004 12.0664 6.85004H12.5914C12.7164 6.85004 12.7664 6.89999 12.7664 7.02498V11.15C12.7664 11.275 12.7164 11.3251 12.5914 11.3251H12.2163C12.1414 11.3251 12.0915 11.3251 12.0664 11.3C12.0164 11.275 11.9915 11.25 11.9915 11.175L11.9414 10.875C11.3915 11.275 10.8164 11.475 10.2414 11.475C9.81638 11.475 9.49147 11.35 9.26634 11.125C9.04145 10.9 8.94143 10.55 8.94143 10.1251V7.02498C8.94143 6.89999 8.99138 6.85004 9.11637 6.85004H9.64144C9.76643 6.85004 9.81638 6.89999 9.81638 7.02498V9.85C9.81638 10.175 9.86645 10.4 9.99144 10.55C10.1164 10.7 10.3164 10.775 10.5914 10.775C11.0164 10.775 11.4414 10.6251 11.8663 10.35V7.02498ZM21.7913 17.025C21.5663 17.175 21.3914 17.1 21.4664 16.8751C21.7664 16.1501 22.4163 14.5 22.1164 14.1C21.7913 13.7 20.0414 13.9 19.2664 14C19.0414 14.025 18.9914 13.825 19.2164 13.675C19.9414 13.175 20.8914 13 21.6913 13C22.4414 13 23.0414 13.15 23.1664 13.3C23.4413 13.65 23.0913 15.9249 21.7913 17.025ZM20.7413 14.675C21.1664 14.5 21.5164 14.95 21.0913 15.25C18.6664 17.05 15.1414 18 12.0913 18C7.84147 18 3.99142 16.425 1.09148 13.7999C0.916418 13.625 1.01644 13.425 1.1915 13.425C1.24145 13.425 1.2914 13.4501 1.34147 13.475C4.46641 15.3 8.34144 16.3999 12.3415 16.3999C15.0414 16.3999 18.0163 15.8251 20.7413 14.675Z" fill="#F2724A"/>
</svg>
