<svg width="24" height="24" viewBox="0 0 24 24" fill="none" xmlns="http://www.w3.org/2000/svg">
<path d="M19.2638 16.0276C18.9916 16.6564 18.6693 17.2353 18.296 17.7675C17.7872 18.493 17.3705 18.9952 17.0494 19.2741C16.5517 19.7319 16.0183 19.9663 15.4473 19.9796C15.0373 19.9796 14.5428 19.863 13.9673 19.6263C13.3899 19.3908 12.8592 19.2741 12.374 19.2741C11.8652 19.2741 11.3194 19.3908 10.7357 19.6263C10.151 19.863 9.68004 19.9863 9.31995 19.9985C8.7723 20.0218 8.22643 19.7807 7.68157 19.2741C7.3338 18.9708 6.89882 18.4508 6.37773 17.7142C5.81864 16.9275 5.359 16.0153 4.9989 14.9754C4.61325 13.8521 4.41992 12.7644 4.41992 11.7113C4.41992 10.505 4.68058 9.46461 5.20267 8.59275C5.61298 7.89245 6.15885 7.34003 6.84205 6.93449C7.52524 6.52895 8.26343 6.32229 9.0584 6.30907C9.49338 6.30907 10.0638 6.44362 10.7727 6.70805C11.4795 6.97338 11.9334 7.10793 12.1324 7.10793C12.2812 7.10793 12.7854 6.9506 13.6401 6.63694C14.4484 6.34607 15.1306 6.22563 15.6895 6.27307C17.2038 6.39529 18.3416 6.99226 19.0982 8.06778C17.7438 8.88841 17.0739 10.0378 17.0872 11.5123C17.0994 12.6608 17.5161 13.6165 18.3349 14.3754C18.706 14.7276 19.1204 14.9998 19.5815 15.1932C19.4815 15.4831 19.376 15.7609 19.2638 16.0276ZM15.7906 2.36034C15.7906 3.26054 15.4617 4.10105 14.8062 4.87902C14.0151 5.80387 13.0582 6.33829 12.0206 6.25396C12.0074 6.14596 11.9997 6.0323 11.9997 5.91286C11.9997 5.04868 12.3759 4.12382 13.044 3.36763C13.3776 2.98476 13.8018 2.66641 14.3162 2.41245C14.8295 2.16228 15.315 2.02393 15.7717 2.00024C15.785 2.12058 15.7906 2.24093 15.7906 2.36033V2.36034Z" fill="#F2724A"/>
</svg>
