<svg width="24" height="24" viewBox="0 0 24 24" fill="none" xmlns="http://www.w3.org/2000/svg">
<path fill-rule="evenodd" clip-rule="evenodd" d="M23 12C23 18.0751 18.0751 23 12 23C5.92487 23 1 18.0751 1 12C1 5.92487 5.92487 1 12 1C18.0751 1 23 5.92487 23 12ZM9.7071 14.2928C8.44076 13.0265 8.44076 10.9734 9.7071 9.70703C10.9734 8.44069 13.0266 8.44069 14.2929 9.70703C14.6834 10.0975 15.3166 10.0975 15.7071 9.70703C16.0976 9.3165 16.0976 8.68334 15.7071 8.29281C13.6597 6.24543 10.3403 6.24543 8.29288 8.29281C6.2455 10.3402 6.2455 13.6597 8.29288 15.707C10.3403 17.7544 13.6597 17.7544 15.7071 15.707C16.0976 15.3165 16.0976 14.6834 15.7071 14.2928C15.3166 13.9023 14.6834 13.9023 14.2929 14.2928C13.0266 15.5592 10.9734 15.5592 9.7071 14.2928Z" fill="#F2724A"/>
</svg>
