<svg width="24" height="24" viewBox="0 0 24 24" fill="none" xmlns="http://www.w3.org/2000/svg">
<path fill-rule="evenodd" clip-rule="evenodd" d="M19.6241 5H23.9999V6.32598H19.6241V5ZM23.9999 6.72399H19.6241V8.04948H23.9999V6.72399ZM14.1882 6.72441H9.81247V8.05064H14.1882V6.72441ZM9.81247 8.44778H14.1882V9.77375H9.81247V8.44778ZM4.37528 10.172H0V11.4975H4.37528V10.172ZM0 11.8956H4.37528V13.2213H0V11.8956ZM4.37528 13.6193H0V14.9458H4.37528V13.6193ZM0 15.3429H4.37528V16.6694H0V15.3429ZM0 17.0665H4.37528V18.3925H0V17.0665ZM4.90582 17.0665H9.28159V18.3925H4.90582V17.0665ZM9.28159 15.3429H4.90582V16.6694H9.28159V15.3429ZM4.90582 13.6193H9.28159V14.9458H4.90582V13.6193ZM14.1882 17.0665H9.81247V18.3925H14.1882V17.0665ZM9.81247 15.3429H14.1882V16.6694H9.81247V15.3429ZM14.1882 13.6193H9.81247V14.9458H14.1882V13.6193ZM9.81247 11.8956H14.1882V13.2213H9.81247V11.8956ZM14.1882 10.172H9.81247V11.4975H14.1882V10.172ZM14.7183 17.0665H19.0943V18.3925H14.7183V17.0665ZM19.0943 15.3429H14.7183V16.6694H19.0943V15.3429ZM14.7183 13.6193H19.0943V14.9458H14.7183V13.6193ZM19.0943 11.8956H14.7183V13.2213H19.0943V11.8956ZM14.7183 10.172H19.0943V11.4975H14.7183V10.172ZM23.9999 17.0665H19.6241V18.3925H23.9999V17.0665ZM19.6241 15.3429H23.9999V16.6694H19.6241V15.3429ZM23.9999 13.6189H19.6241V14.9449H23.9999V13.6189ZM19.6241 11.8956H23.9999V13.2215H19.6241V11.8956ZM23.9999 10.1716H19.6241V11.4978H23.9999V10.1716ZM19.6241 8.4482H23.9999V9.77368H19.6241V8.4482Z" fill="#F2724A"/>
</svg>
