<svg width="24" height="24" viewBox="0 0 24 24" fill="none" xmlns="http://www.w3.org/2000/svg">
<path fill-rule="evenodd" clip-rule="evenodd" d="M3 13C3 11.3431 4.34315 10 6 10H18C19.6569 10 21 11.3431 21 13V20C21 21.6569 19.6569 23 18 23H6C4.34315 23 3 21.6569 3 20V13ZM8.46967 16.4697C8.76256 16.1768 9.23744 16.1768 9.53033 16.4697L11 17.9393V13C11 12.4477 11.4477 12 12 12C12.5523 12 13 12.4477 13 13V17.9393L14.4697 16.4697C14.7626 16.1768 15.2374 16.1768 15.5303 16.4697C15.8232 16.7626 15.8232 17.2374 15.5303 17.5303L12.5303 20.5303C12.2374 20.8232 11.7626 20.8232 11.4697 20.5303L8.46967 17.5303C8.17678 17.2374 8.17678 16.7626 8.46967 16.4697Z" fill="#8DA0B3"/>
<path fill-rule="evenodd" clip-rule="evenodd" d="M12 3C10.9391 3 9.92172 3.42143 9.17157 4.17157C8.42143 4.92172 8 5.93913 8 7V11C8 11.5523 7.55228 12 7 12C6.44772 12 6 11.5523 6 11V7C6 5.4087 6.63214 3.88258 7.75736 2.75736C8.88258 1.63214 10.4087 1 12 1C13.5913 1 15.1174 1.63214 16.2426 2.75736C16.6332 3.14788 16.6332 3.78105 16.2426 4.17157C15.8521 4.5621 15.219 4.5621 14.8284 4.17157C14.0783 3.42143 13.0609 3 12 3Z" fill="#8DA0B3"/>
</svg>
