<svg width="24" height="24" viewBox="0 0 24 24" fill="none" xmlns="http://www.w3.org/2000/svg">
<path fill-rule="evenodd" clip-rule="evenodd" d="M23 12C23 18.0751 18.0751 23 12 23C5.92487 23 1 18.0751 1 12C1 5.92487 5.92487 1 12 1C18.0751 1 23 5.92487 23 12ZM8 6C7.44772 6 7 6.44772 7 7V17C7 17.5523 7.44772 18 8 18H16C16.5523 18 17 17.5523 17 17V10C17 9.73478 16.8946 9.48043 16.7071 9.29289L13.7071 6.29289C13.5196 6.10536 13.2652 6 13 6H8ZM15 10.4142V16H9V8H12.5858L15 10.4142Z" fill="#2DA84F"/>
</svg>
