<svg width="24" height="24" viewBox="0 0 24 24" fill="none" xmlns="http://www.w3.org/2000/svg">
<path fill-rule="evenodd" clip-rule="evenodd" d="M21.1765 10.7354L19.7948 9.95034C19.9451 10.5696 20.0247 11.2162 20.0247 11.8812C20.0247 12.6386 19.9249 13.3839 19.7251 14.0796L21.1765 13.2549C22.4046 12.5643 22.4046 11.439 21.1765 10.7354ZM4.11577 1.0414L9.42613 4.05878C6.0864 5.0906 3.6543 8.20619 3.6543 11.8812C3.6543 15.6588 6.21429 18.8379 9.6946 19.7791L4.11577 22.949C3.38687 23.3713 2.74745 23.3329 2.33818 22.9364C2.06954 22.668 1.90332 22.2331 1.90332 21.6701V2.32039C1.90332 1.7576 2.05698 1.3227 2.33818 1.05406C2.73474 0.670338 3.38687 0.631995 4.11577 1.0414ZM17.1151 12.0017C17.1151 14.8269 14.825 17.1174 11.9995 17.1174C9.17406 17.1174 6.88379 14.8269 6.88379 12.0017C6.88379 9.17625 9.17406 6.88599 11.9995 6.88599C14.825 6.88594 17.1151 9.17621 17.1151 12.0017ZM12.0005 9.31597V12.4617C11.8213 12.3597 11.6168 12.2956 11.3993 12.2956C10.7344 12.2956 10.21 12.8331 10.21 13.4849C10.21 14.1503 10.747 14.6745 11.3993 14.6745C12.0646 14.6745 12.64 14.1371 12.64 13.4849V10.5948H13.7909V9.31592H12.0005V9.31597Z" fill="#F2724A"/>
</svg>
