<svg width="24" height="24" viewBox="0 0 24 24" fill="none" xmlns="http://www.w3.org/2000/svg">
<path d="M12.0006 10.5269H21.7104C21.8175 11.1251 21.8711 11.6965 21.8711 12.2411C21.8711 14.1786 21.4648 15.9086 20.6523 17.4309C19.8398 18.9532 18.6814 20.1429 17.1769 21.0001C15.6724 21.8572 13.947 22.2858 12.0006 22.2858C10.5988 22.2858 9.26395 22.0157 7.99609 21.4755C6.72824 20.9353 5.63449 20.2054 4.71484 19.2858C3.7952 18.3661 3.06529 17.2724 2.52511 16.0045C1.98493 14.7367 1.71484 13.4019 1.71484 12.0001C1.71484 10.5983 1.98493 9.26346 2.52511 7.9956C3.06529 6.72775 3.7952 5.634 4.71484 4.71435C5.63449 3.79471 6.72824 3.0648 7.99609 2.52462C9.26395 1.98444 10.5988 1.71436 12.0006 1.71436C14.6791 1.71436 16.9782 2.61168 18.8979 4.40632L16.0988 7.09828C15.0006 6.03578 13.6345 5.50453 12.0006 5.50453C10.8488 5.50453 9.78404 5.79471 8.80636 6.37507C7.82868 6.95543 7.05413 7.74337 6.4827 8.73891C5.91127 9.73444 5.62556 10.8215 5.62556 12.0001C5.62556 13.1786 5.91127 14.2657 6.4827 15.2612C7.05413 16.2568 7.82868 17.0447 8.80636 17.6251C9.78404 18.2054 10.8488 18.4956 12.0006 18.4956C12.7773 18.4956 13.4916 18.3885 14.1434 18.1742C14.7952 17.9599 15.3309 17.692 15.7506 17.3706C16.1702 17.0492 16.5363 16.6831 16.8488 16.2724C17.1613 15.8617 17.3912 15.4733 17.5385 15.1072C17.6858 14.7411 17.7863 14.3929 17.8398 14.0626H12.0006V10.5269Z" fill="#8DA0B3"/>
</svg>
