<svg width="24" height="24" viewBox="0 0 24 24" fill="none" xmlns="http://www.w3.org/2000/svg">
<path fill-rule="evenodd" clip-rule="evenodd" d="M12 23C18.0751 23 23 18.0751 23 12C23 5.92487 18.0751 1 12 1C5.92487 1 1 5.92487 1 12C1 18.0751 5.92487 23 12 23ZM8 12C8 11.4477 8.44772 11 9 11H15C15.5523 11 16 11.4477 16 12C16 12.5523 15.5523 13 15 13H9C8.44772 13 8 12.5523 8 12ZM6 12C6 10.3431 7.34315 9 9 9H10C10.5523 9 11 8.55228 11 8C11 7.44772 10.5523 7 10 7H9C6.23858 7 4 9.23858 4 12C4 14.7614 6.23858 17 9 17H10C10.5523 17 11 16.5523 11 16C11 15.4477 10.5523 15 10 15H9C7.34315 15 6 13.6569 6 12ZM14 7C13.4477 7 13 7.44772 13 8C13 8.55228 13.4477 9 14 9H15C16.6569 9 18 10.3431 18 12C18 13.6569 16.6569 15 15 15H14C13.4477 15 13 15.4477 13 16C13 16.5523 13.4477 17 14 17H15C17.7614 17 20 14.7614 20 12C20 9.23858 17.7614 7 15 7H14Z" fill="#F2724A"/>
</svg>
