<svg width="24" height="24" viewBox="0 0 24 24" fill="none" xmlns="http://www.w3.org/2000/svg">
<path fill-rule="evenodd" clip-rule="evenodd" d="M22 12C22 17.5228 17.5228 22 12 22C6.47715 22 2 17.5228 2 12C2 6.47715 6.47715 2 12 2C17.5228 2 22 6.47715 22 12ZM12 7.5C11.4696 7.5 10.9609 7.71071 10.5858 8.08579C10.2107 8.46086 10 8.96957 10 9.5V11H14V9.5C14 8.96957 13.7893 8.46086 13.4142 8.08579C13.0391 7.71071 12.5304 7.5 12 7.5ZM9 9.5V11C8.44771 11 8 11.4477 8 12V16C8 16.5523 8.44771 17 9 17H15C15.5523 17 16 16.5523 16 16V12C16 11.4477 15.5523 11 15 11V9.5C15 8.70435 14.6839 7.94129 14.1213 7.37868C13.5587 6.81607 12.7956 6.5 12 6.5C11.2044 6.5 10.4413 6.81607 9.87868 7.37868C9.31607 7.94129 9 8.70435 9 9.5Z" fill="#8DA0B3"/>
</svg>
