<svg width="24" height="24" viewBox="0 0 24 24" fill="none" xmlns="http://www.w3.org/2000/svg">
<path fill-rule="evenodd" clip-rule="evenodd" d="M23 12C23 18.0751 18.0751 23 12 23C5.92487 23 1 18.0751 1 12C1 5.92487 5.92487 1 12 1C18.0751 1 23 5.92487 23 12ZM7 7C6.44772 7 6 7.44772 6 8C6 8.55228 6.44772 9 7 9H14C14.5523 9 15 8.55228 15 8C15 7.44772 14.5523 7 14 7H7ZM6 12C6 11.4477 6.44772 11 7 11H17C17.5523 11 18 11.4477 18 12C18 12.5523 17.5523 13 17 13H7C6.44772 13 6 12.5523 6 12ZM7 15C6.44772 15 6 15.4477 6 16C6 16.5523 6.44772 17 7 17H11C11.5523 17 12 16.5523 12 16C12 15.4477 11.5523 15 11 15H7Z" fill="#2DA84F"/>
</svg>
