<svg width="24" height="24" viewBox="0 0 24 24" fill="none" xmlns="http://www.w3.org/2000/svg">
<path fill-rule="evenodd" clip-rule="evenodd" d="M23 12C23 18.0751 18.0751 23 12 23C5.92487 23 1 18.0751 1 12C1 5.92487 5.92487 1 12 1C18.0751 1 23 5.92487 23 12ZM10 13C8.34315 13 7 14.3431 7 16C7 17.6569 8.34315 19 10 19C11.6569 19 13 17.6569 13 16V11H17C17.5523 11 18 10.5523 18 10V7C18 6.44772 17.5523 6 17 6H12C11.4477 6 11 6.44771 11 7V10V13.1707C10.6872 13.0602 10.3506 13 10 13ZM13 8V9H16V8H13ZM10 15C10.5523 15 11 15.4477 11 16C11 16.5523 10.5523 17 10 17C9.44772 17 9 16.5523 9 16C9 15.4477 9.44772 15 10 15Z" fill="#2DA84F"/>
</svg>
