<svg width="24" height="24" viewBox="0 0 24 24" fill="none" xmlns="http://www.w3.org/2000/svg">
<path fill-rule="evenodd" clip-rule="evenodd" d="M23 12C23 18.0751 18.0751 23 12 23C5.92487 23 1 18.0751 1 12C1 5.92487 5.92487 1 12 1C18.0751 1 23 5.92487 23 12ZM9 6C8.73478 6 8.48043 6.10536 8.29289 6.29289C8.10536 6.48043 8 6.73478 8 7V17C8 17.5523 8.44772 18 9 18C9.55228 18 10 17.5523 10 17V14H13C15.2091 14 17 12.2091 17 10C17 7.79086 15.2091 6 13 6H9ZM13 12H10V8H13C14.1046 8 15 8.89543 15 10C15 11.1046 14.1046 12 13 12Z" fill="#8DA0B3"/>
</svg>
