<svg width="24" height="24" viewBox="0 0 24 24" fill="none" xmlns="http://www.w3.org/2000/svg">
<path d="M0.80664 15.9275L1.2 14.3361L0.80664 12.6911C0.79584 12.6423 0.69696 12.605 0.57648 12.605C0.45456 12.605 0.35568 12.6423 0.34632 12.6916L0 14.3361L0.34632 15.9275C0.35568 15.9768 0.45456 16.0141 0.57648 16.0141C0.69696 16.0141 0.79584 15.9768 0.80664 15.9275ZM3.26664 16.8109L3.6 14.3518L3.26664 10.5473C3.2568 10.4505 3.132 10.3745 2.9808 10.3745C2.8284 10.3745 2.70336 10.4505 2.69568 10.5473L2.4 14.3518L2.69568 16.8109C2.70312 16.9068 2.8284 16.9827 2.9808 16.9827C3.13224 16.9827 3.2568 16.9077 3.26664 16.8109ZM5.7216 16.7705L6 14.3532L5.7216 9.28795C5.71416 9.16909 5.56608 9.07568 5.38464 9.07568C5.20176 9.07568 5.05368 9.16886 5.0472 9.28795L4.8 14.3532L5.04696 16.7718C5.05344 16.8898 5.20176 16.9827 5.3844 16.9827C5.56584 16.9823 5.71416 16.8895 5.7216 16.7705ZM8.17176 16.7345L8.4 14.3534L8.17176 9.25136C8.16624 9.11023 7.99728 8.99977 7.78776 8.99977C7.5768 8.99977 7.40808 9.11023 7.4028 9.25136L7.2 14.3534L7.404 16.7341C7.40832 16.8739 7.57704 16.9845 7.788 16.9845C7.99728 16.9845 8.166 16.8757 8.17176 16.7345ZM10.6195 16.7043L10.8 14.3543L10.6195 8.50432C10.6157 8.34364 10.4232 8.21318 10.1906 8.21318C9.9576 8.21318 9.7656 8.34409 9.76176 8.50432L9.6 14.3527C9.6 14.3566 9.76176 16.7048 9.76176 16.7048C9.7656 16.8634 9.9576 16.9939 10.1906 16.9939C10.4232 16.9939 10.6157 16.865 10.6195 16.7043ZM12.3338 16.9955C12.3418 16.9959 20.8519 17 20.9074 17C22.6157 17 24 15.7318 24 14.1675C24 12.6027 22.6157 11.3345 20.9071 11.3345C20.4833 11.3345 20.0794 11.4136 19.711 11.5548C19.465 9.0025 17.1271 7 14.2762 7C13.5787 7 12.8981 7.12568 12.2976 7.33818C12.0643 7.42136 12.0019 7.50614 12 7.67159V16.6609C12.0024 16.8341 12.149 16.9786 12.3338 16.9955Z" fill="#F2724A"/>
</svg>
