<svg width="24" height="24" viewBox="0 0 24 24" fill="none" xmlns="http://www.w3.org/2000/svg">
<path d="M19.7782 4.22182C17.7006 2.14421 14.9382 1 12 1C9.06184 1 6.29942 2.14421 4.22182 4.22182C2.14421 6.29942 1 9.06168 1 12C1 14.9382 2.14421 17.7006 4.22182 19.7782C6.29942 21.8558 9.06184 23 12 23C14.9382 23 17.7006 21.8558 19.7782 19.7782C21.8558 17.7006 23 14.9382 23 12C23 9.06168 21.8558 6.29942 19.7782 4.22182ZM17.0827 16.5327C16.975 16.7709 16.7405 16.9119 16.4949 16.9119C16.4061 16.9119 16.316 16.8936 16.2299 16.8545C14.2559 15.9622 12.1474 15.5098 9.96284 15.5098C8.79984 15.5098 7.64119 15.6413 6.51897 15.9006C6.1722 15.9808 5.82593 15.7645 5.74586 15.4175C5.6658 15.0708 5.88199 14.7247 6.22876 14.6446C7.44598 14.3634 8.70232 14.2208 9.96284 14.2208C12.3317 14.2208 14.6187 14.7117 16.7608 15.6799C17.0853 15.8266 17.2293 16.2084 17.0827 16.5327ZM18.4433 13.4477C18.3357 13.6864 18.1009 13.8277 17.8552 13.8277C17.7665 13.8277 17.6767 13.8094 17.591 13.7708C15.1872 12.6887 12.6207 12.1402 9.96284 12.1402C8.60278 12.1402 7.24591 12.2875 5.93016 12.5784C5.58255 12.6553 5.23846 12.4357 5.16176 12.0881C5.08488 11.7405 5.30443 11.3964 5.65204 11.3195C7.05893 11.0087 8.50929 10.8511 9.96284 10.8511C12.8043 10.8511 15.549 11.4379 18.12 12.5954C18.4446 12.7415 18.5893 13.1231 18.4433 13.4477ZM19.7607 10.4593C19.6535 10.6983 19.4185 10.84 19.1724 10.84C19.0841 10.84 18.9945 10.8219 18.9087 10.7834C16.0891 9.51772 13.0794 8.87587 9.96301 8.87587C8.41295 8.87587 6.86557 9.03885 5.36351 9.36011C5.0154 9.43497 4.67282 9.21291 4.5983 8.86479C4.52394 8.51668 4.74567 8.1741 5.09378 8.09958C6.6843 7.75935 8.32248 7.58681 9.96301 7.58681C13.2625 7.58681 16.45 8.26659 19.4366 9.60735C19.7614 9.7532 19.9066 10.1346 19.7607 10.4593Z" fill="#F2724A"/>
</svg>
